<svg width="101" height="29" viewBox="0 0 101 29" fill="none" xmlns="http://www.w3.org/2000/svg">
<path d="M27.734 8.00251C28.0335 8.00225 28.3295 8.0669 28.6017 8.192C28.8738 8.31711 29.1156 8.4997 29.3104 8.7272L31.0428 6.73791C30.3383 6.01322 28.9813 5.52528 27.6965 5.52528C24.8901 5.52528 22.6641 7.38754 22.6641 10.3209C22.6641 13.3063 24.8728 15.1166 27.7138 15.1166C29.0361 15.1166 30.3123 14.6835 31.0428 13.9617L29.397 11.9407C29.1903 12.1588 28.9401 12.3311 28.6626 12.4465C28.3851 12.5619 28.0864 12.6178 27.786 12.6105C26.4838 12.6105 25.6697 11.5596 25.6697 10.3007C25.6697 9.04191 26.4752 8.00251 27.734 8.00251ZM36.1069 5.52528C34.6249 5.50843 33.1909 6.05068 32.0908 7.04396L33.5922 8.65502C34.1973 8.08679 34.9886 7.75836 35.8182 7.73112C36.7421 7.73112 37.4466 8.14976 37.4466 9.03614V9.1805C34.8221 9.1805 31.6548 9.61358 31.6548 12.2207C31.6548 14.34 33.5027 15.0444 34.9318 15.0444C36.0001 15.0444 37.0308 14.6113 37.4841 13.8693H37.539V14.8279H40.253V10.2834C40.2443 7.00931 39.1212 5.52528 36.0983 5.52528H36.1069ZM37.5505 11.2073C37.5505 12.3304 36.8807 13.0551 35.6854 13.0551C35.0877 13.0551 34.4006 12.8184 34.4006 12.1312C34.4006 11.063 35.8673 10.9013 37.1694 10.9013H37.5505V11.2073ZM47.471 5.55993C46.9176 5.54774 46.369 5.66393 45.868 5.89936C45.3671 6.1348 44.9275 6.48309 44.5838 6.91692H44.5289V5.81401H41.7052V19.1731H44.6646V13.8318H44.7022C45.2623 14.6113 46.3306 15.082 47.4335 15.082C50.1503 15.082 51.7239 12.8011 51.7239 10.2834C51.7239 7.76576 50.0753 5.55993 47.4508 5.55993H47.471ZM46.7463 12.6192C45.4067 12.6192 44.5751 11.4643 44.5751 10.3094C44.5751 9.15451 45.4067 7.99963 46.7463 7.99963C48.1582 7.99963 48.8626 9.14008 48.8626 10.3094C48.8626 11.4787 48.1293 12.6192 46.7261 12.6192H46.7463Z" fill="white"/>
<path d="M62.4413 3.4436H59.5281V5.81401H58.0845V8.04005H59.5281V11.8425C59.5281 13.7596 60.3249 15.0444 62.7329 15.0444C63.3161 15.0437 63.8957 14.9521 64.4508 14.773L64.4161 12.6018C64.1377 12.6988 63.8448 12.7476 63.55 12.7462C62.6982 12.7462 62.4268 12.3131 62.4268 11.4787V8.04005H64.5461V5.81401H62.4268L62.4413 3.4436Z" fill="white"/>
<path d="M70.2078 5.52525C68.725 5.50909 67.2904 6.0512 66.1888 7.04393L67.6902 8.65499C68.2967 8.08724 69.0888 7.75895 69.9191 7.73109C70.8401 7.73109 71.5475 8.14973 71.5475 9.03611V9.18047C68.923 9.18047 65.7557 9.61355 65.7557 12.2207C65.7557 14.3399 67.6007 15.0444 69.0298 15.0444C70.0981 15.0444 71.1317 14.6113 71.5821 13.8693H71.637V14.8279H74.3539V10.2834C74.3539 7.00928 73.2307 5.52525 70.2078 5.52525ZM71.637 11.2073C71.637 12.3304 70.9672 13.0551 69.7719 13.0551C69.1771 13.0551 68.487 12.8184 68.487 12.1312C68.487 11.0629 69.9537 10.9012 71.2588 10.9012H71.637V11.2073Z" fill="white"/>
<path d="M82.1205 5.56002C81.6007 5.54948 81.0849 5.65313 80.6094 5.86365C80.134 6.07417 79.7106 6.38643 79.369 6.77842H79.3315V1.14258H76.3634V14.828H79.0976V13.65H79.1322C79.7097 14.5566 80.8877 15.0936 82.083 15.0936C84.797 15.0936 86.3734 12.8127 86.3734 10.295C86.3734 7.7774 84.745 5.56002 82.1205 5.56002ZM81.3785 12.6193C80.0388 12.6193 79.2044 11.4644 79.2044 10.3095C79.2044 9.1546 80.0388 7.99971 81.3785 7.99971C82.7903 7.99971 83.5121 9.14016 83.5121 10.3095C83.5121 11.4788 82.7903 12.6193 81.3785 12.6193Z" fill="white"/>
<path d="M90.4472 1.14258H87.4417V14.8251H90.4472V1.14258Z" fill="white"/>
<path d="M101 10.4278C101 7.35291 99.1348 5.51953 96.4757 5.51953C93.7415 5.51953 91.605 7.402 91.605 10.3498C91.605 13.393 93.8512 15.1109 96.5652 15.1109C98.3928 15.1109 99.8047 14.4237 100.656 13.1937L98.592 11.8887C98.3635 12.198 98.0627 12.4465 97.7159 12.6126C97.3692 12.7787 96.9869 12.8573 96.6028 12.8415C95.5345 12.8415 94.5384 12.137 94.4489 11.1409H100.983C101 10.9186 101 10.6645 101 10.4278ZM94.4489 9.29023C94.5068 8.79627 94.7501 8.3427 95.1295 8.02115C95.5089 7.6996 95.9963 7.53404 96.493 7.5579C97.671 7.5579 98.2658 8.33745 98.2658 9.29023H94.4489Z" fill="white"/>
<path d="M11.0257 11.5192C10.5084 11.9399 9.88221 12.205 9.22006 12.2837C8.55791 12.3623 7.88704 12.2513 7.28557 11.9634C6.6841 11.6755 6.17678 11.2227 5.82269 10.6577C5.46859 10.0927 5.28229 9.43871 5.28547 8.77191C5.28866 8.10512 5.4812 7.45294 5.84068 6.89133C6.20016 6.32973 6.71178 5.88179 7.31597 5.59969C7.92017 5.31759 8.59206 5.21293 9.25343 5.2979C9.9148 5.38287 10.5384 5.65398 11.0517 6.07964L14.7762 2.35513C13.5244 1.19013 11.9599 0.415613 10.2745 0.126512C8.58908 -0.162588 6.85593 0.0462837 5.28744 0.727529C3.71896 1.40877 2.38329 2.5328 1.44412 3.96185C0.504949 5.3909 0.0030787 7.0629 1.41192e-05 8.77294C-0.00305046 10.483 0.492824 12.1568 1.42687 13.5892C2.36091 15.0216 3.69254 16.1504 5.25857 16.8372C6.8246 17.5241 8.557 17.7392 10.2434 17.4561C11.9299 17.1731 13.4971 16.4042 14.7531 15.2437L11.0257 11.5192Z" fill="white"/>
<path d="M55.3965 12.1745C56.3357 12.1745 57.0971 11.4454 57.0971 10.5461C57.0971 9.64678 56.3357 8.91772 55.3965 8.91772C54.4573 8.91772 53.6959 9.64678 53.6959 10.5461C53.6959 11.4454 54.4573 12.1745 55.3965 12.1745Z" fill="#81D3EB"/>
<path d="M15.2612 8.55113V8.47029C15.1997 7.54593 14.9418 6.64531 14.5047 5.82849C14.5848 5.68853 14.6173 5.52637 14.5974 5.36636C14.5774 5.20635 14.5061 5.05713 14.3941 4.94113C14.2821 4.82512 14.1354 4.74859 13.9762 4.72304C13.817 4.69748 13.6538 4.72428 13.5111 4.79941C13.3685 4.87453 13.254 4.99393 13.185 5.13966C13.116 5.28539 13.0961 5.44958 13.1283 5.60757C13.1606 5.76556 13.2433 5.90881 13.3639 6.01581C13.4845 6.12281 13.6366 6.18777 13.7973 6.20094C14.2499 7.03608 14.487 7.97085 14.4874 8.92069C14.4874 9.04196 14.4874 9.16033 14.4874 9.2816H16.6326V9.3711C16.5578 10.7142 16.1392 12.0156 15.4171 13.1505C15.2698 13.1539 15.1269 13.2007 15.0062 13.285C14.8854 13.3694 14.7923 13.4875 14.7384 13.6246C14.6846 13.7616 14.6724 13.9116 14.7034 14.0555C14.7344 14.1995 14.8072 14.3311 14.9128 14.4338C15.0183 14.5366 15.1518 14.6059 15.2965 14.633C15.4413 14.6602 15.5908 14.644 15.7264 14.5865C15.862 14.529 15.9776 14.4327 16.0587 14.3097C16.1397 14.1868 16.1827 14.0426 16.1822 13.8954C16.182 13.7764 16.1522 13.6593 16.0956 13.5547C16.8755 12.3246 17.3314 10.9172 17.4208 9.46349V9.37687C17.4208 9.22385 17.4208 9.06794 17.4208 8.90915C17.4208 8.75035 17.4208 8.66662 17.4208 8.54536L15.2612 8.55113Z" fill="#81D3EB"/>
<path d="M15.4113 10.5924C15.4099 10.4747 15.3808 10.3589 15.3262 10.2546C15.2716 10.1503 15.1932 10.0603 15.0972 9.99203C15.0013 9.92375 14.8906 9.87908 14.7742 9.86167C14.6577 9.84425 14.5388 9.85458 14.4271 9.89182C14.3154 9.92905 14.2141 9.99214 14.1314 10.0759C14.0487 10.1597 13.9869 10.2619 13.9511 10.3741C13.9154 10.4862 13.9066 10.6053 13.9255 10.7215C13.9445 10.8377 13.9906 10.9478 14.0601 11.0428C13.9937 11.2074 13.9215 11.372 13.8378 11.5365L13.7829 11.6405L12.758 10.6155L12.7811 10.5607C13.1897 9.56373 13.2082 8.44956 12.833 7.43958C12.9479 7.30622 13.0113 7.13627 13.0121 6.9603C13.0124 6.81988 12.9733 6.68218 12.8991 6.56298C12.8248 6.44377 12.7185 6.34788 12.5924 6.28627C12.4662 6.22466 12.3252 6.19982 12.1855 6.2146C12.0459 6.22939 11.9132 6.28319 11.8028 6.36986C11.6923 6.45652 11.6084 6.57255 11.5608 6.70465C11.5132 6.83675 11.5037 6.97959 11.5335 7.11682C11.5633 7.25405 11.6311 7.38012 11.7292 7.4806C11.8273 7.58109 11.9517 7.65192 12.0881 7.68499C12.2729 8.17735 12.3455 8.70474 12.3005 9.2287C12.2556 9.75266 12.0942 10.26 11.8283 10.7137L13.9677 12.8416C14.3126 12.376 14.5933 11.8662 14.8021 11.3258C14.9734 11.294 15.1281 11.2033 15.2394 11.0693C15.3507 10.9353 15.4115 10.7666 15.4113 10.5924Z" fill="#81D3EB"/>
<path d="M17.0485 6.40881C16.8165 5.63441 16.4763 4.89665 16.038 4.21742C16.0774 4.12623 16.098 4.02803 16.0986 3.9287C16.0986 3.7808 16.0547 3.63622 15.9726 3.51325C15.8904 3.39027 15.7736 3.29443 15.637 3.23783C15.5003 3.18123 15.35 3.16642 15.2049 3.19528C15.0599 3.22413 14.9266 3.29535 14.8221 3.39993C14.7175 3.50451 14.6462 3.63775 14.6174 3.78281C14.5885 3.92787 14.6034 4.07822 14.6599 4.21486C14.7165 4.3515 14.8124 4.46829 14.9354 4.55046C15.0583 4.63263 15.2029 4.67649 15.3508 4.67649H15.3855C15.7871 5.30329 16.0981 5.9837 16.3094 6.69754C16.207 6.82763 16.1511 6.9882 16.1506 7.15372C16.1501 7.296 16.19 7.43549 16.2657 7.55595C16.3414 7.67641 16.4498 7.77287 16.5782 7.83409C16.7067 7.89531 16.8499 7.91877 16.9911 7.90173C17.1324 7.88469 17.2659 7.82786 17.3761 7.73786C17.4863 7.64786 17.5686 7.5284 17.6135 7.39339C17.6585 7.25838 17.6641 7.11339 17.6297 6.97532C17.5954 6.83724 17.5225 6.71176 17.4196 6.61351C17.3167 6.51526 17.188 6.44827 17.0485 6.42036V6.40881Z" fill="#81D3EB"/>
<path d="M23.3223 23.2615L23.0335 23.8909H22.5341L23.7554 21.1191H24.2577L25.479 23.8909H24.9795L24.6908 23.2615H23.3223ZM24.5176 22.8284L24.0152 21.6735L23.5099 22.8284H24.5176Z" fill="#81D3EB"/>
<path d="M27.8264 21.7485C27.9608 21.7457 28.0944 21.7698 28.2194 21.8193C28.3443 21.8689 28.4581 21.943 28.554 22.0372C28.6531 22.141 28.7299 22.2639 28.7795 22.3985C28.8292 22.5331 28.8507 22.6764 28.8427 22.8197C28.8499 22.9641 28.828 23.1086 28.7784 23.2444C28.7288 23.3803 28.6525 23.5049 28.554 23.6108C28.4636 23.7105 28.3527 23.7894 28.2288 23.8421C28.105 23.8947 27.9711 23.9199 27.8366 23.9158C27.7021 23.9116 27.5701 23.8784 27.4497 23.8182C27.3293 23.7581 27.2234 23.6725 27.1393 23.5675V24.6559H26.6975V21.7918H27.1393V22.1614C27.2071 22.038 27.3064 21.9348 27.4271 21.8623C27.5478 21.7897 27.6856 21.7505 27.8264 21.7485ZM27.1335 22.8399C27.1297 22.9301 27.1439 23.0202 27.1751 23.1049C27.2063 23.1897 27.254 23.2674 27.3154 23.3336C27.371 23.3961 27.4396 23.4458 27.5164 23.4793C27.5932 23.5127 27.6763 23.529 27.76 23.527C27.8449 23.5275 27.9291 23.5109 28.0075 23.4782C28.0859 23.4455 28.1568 23.3973 28.2162 23.3365C28.2809 23.2721 28.3315 23.195 28.3648 23.11C28.3981 23.025 28.4134 22.934 28.4096 22.8428C28.4151 22.6558 28.3466 22.4743 28.2191 22.3375C28.1612 22.2742 28.0907 22.2238 28.0121 22.1894C27.9336 22.1551 27.8486 22.1377 27.7629 22.1383C27.6783 22.1367 27.5943 22.1537 27.517 22.1881C27.4396 22.2225 27.3708 22.2735 27.3154 22.3375C27.1932 22.4758 27.1282 22.6554 27.1335 22.8399Z" fill="#81D3EB"/>
<path d="M29.706 23.8908H29.2614V20.9487H29.706V23.8908Z" fill="#81D3EB"/>
<path d="M31.9608 23.8909H31.5537V23.6022C31.4686 23.7046 31.3611 23.786 31.2394 23.8401C31.1177 23.8941 30.9852 23.9194 30.8521 23.914C30.6537 23.9218 30.4594 23.856 30.3065 23.7292C30.2355 23.6675 30.1794 23.5904 30.1424 23.5039C30.1054 23.4174 30.0884 23.3237 30.0928 23.2297C30.0872 23.1391 30.1052 23.0486 30.1452 22.9671C30.1852 22.8855 30.2458 22.8159 30.3209 22.7649C30.5085 22.6516 30.7257 22.5973 30.9445 22.609H31.522V22.531C31.522 22.2423 31.3661 22.1095 31.0542 22.1095C30.8336 22.1185 30.6205 22.1928 30.4422 22.3231L30.2458 22.0344C30.4908 21.8358 30.7967 21.7278 31.112 21.7284C31.331 21.7192 31.5464 21.7866 31.7212 21.9189C31.8017 21.9911 31.8648 22.0805 31.9058 22.1805C31.9468 22.2805 31.9646 22.3885 31.9579 22.4964L31.9608 23.8909ZM31.5162 23.1056V22.9266H31.0167C30.6962 22.9266 30.5345 23.0276 30.5345 23.2153C30.5325 23.2619 30.5425 23.3082 30.5638 23.3497C30.5851 23.3912 30.6168 23.4265 30.6558 23.452C30.755 23.5113 30.8696 23.5395 30.985 23.5329C31.1187 23.535 31.2494 23.4934 31.3574 23.4145C31.406 23.3788 31.4456 23.3323 31.4731 23.2787C31.5007 23.2251 31.5154 23.1658 31.5162 23.1056Z" fill="#81D3EB"/>
<path d="M33.0031 22.1383V23.2094C32.9981 23.2962 33.0259 23.3818 33.0811 23.449C33.1095 23.479 33.1441 23.5025 33.1825 23.518C33.2208 23.5334 33.2621 23.5404 33.3034 23.5386C33.3562 23.5359 33.408 23.5222 33.4552 23.4984C33.5025 23.4745 33.5442 23.441 33.5777 23.4L33.7596 23.7118C33.6206 23.8456 33.4356 23.921 33.2427 23.9226C33.1528 23.9246 33.0634 23.9082 32.98 23.8744C32.8966 23.8407 32.8209 23.7902 32.7577 23.7262C32.6898 23.6567 32.6371 23.5738 32.6028 23.4829C32.5685 23.3919 32.5534 23.2949 32.5585 23.1979V22.1383H32.2928V21.7918H32.5585V21.1306H33.0031V21.7918H33.5574V22.1498L33.0031 22.1383Z" fill="#81D3EB"/>
<path d="M35.7143 23.8909H35.3101V23.6022C35.2249 23.7046 35.1174 23.786 34.9957 23.8401C34.874 23.8941 34.7415 23.9194 34.6085 23.914C34.41 23.9218 34.2157 23.856 34.0628 23.7292C33.9914 23.6676 33.9349 23.5907 33.8974 23.5042C33.8599 23.4177 33.8424 23.3239 33.8462 23.2297C33.8409 23.1388 33.8594 23.0481 33.8999 22.9666C33.9404 22.8851 34.0016 22.8155 34.0772 22.7649C34.2648 22.6516 34.482 22.5973 34.7009 22.609H35.2783V22.531C35.2783 22.2423 35.1224 22.1095 34.8106 22.1095C34.5898 22.1179 34.3766 22.1924 34.1985 22.3231L33.9993 22.0344C34.2446 21.8365 34.5502 21.7285 34.8654 21.7284C35.0845 21.7192 35.2998 21.7866 35.4746 21.9189C35.5548 21.9912 35.6174 22.0807 35.6579 22.1807C35.6985 22.2808 35.7157 22.3887 35.7085 22.4964L35.7143 23.8909ZM35.2696 23.1056V22.9266H34.7701C34.4497 22.9266 34.2909 23.0276 34.2909 23.2153C34.2887 23.2616 34.2985 23.3076 34.3192 23.3491C34.34 23.3905 34.3709 23.426 34.4092 23.452C34.5183 23.511 34.6415 23.5388 34.7653 23.5321C34.8891 23.5255 35.0087 23.4848 35.1108 23.4145C35.1613 23.38 35.2028 23.334 35.232 23.2803C35.2611 23.2266 35.277 23.1667 35.2783 23.1056H35.2696Z" fill="#81D3EB"/>
<path d="M36.7739 21.607V21.7803H37.3311V22.1383H36.7739V23.8908H36.3292V22.1383H36.0636V21.7918H36.3292V21.6301C36.3247 21.5329 36.3404 21.4358 36.3752 21.3449C36.4099 21.2539 36.4631 21.1712 36.5313 21.1018C36.594 21.0378 36.6692 20.9874 36.7521 20.9537C36.835 20.9199 36.924 20.9035 37.0135 20.9054C37.2068 20.9066 37.3924 20.9809 37.5332 21.1133L37.3513 21.428C37.3176 21.3873 37.2758 21.3539 37.2286 21.3301C37.1814 21.3062 37.1298 21.2924 37.077 21.2894C37.0357 21.2876 36.9945 21.2946 36.9561 21.31C36.9178 21.3255 36.8832 21.349 36.8547 21.3789C36.8007 21.4425 36.772 21.5237 36.7739 21.607Z" fill="#81D3EB"/>
<path d="M39.3724 23.6081C39.1581 23.8103 38.8746 23.923 38.5799 23.923C38.2852 23.923 38.0017 23.8103 37.7874 23.6081C37.5839 23.4031 37.4697 23.126 37.4697 22.8372C37.4697 22.5484 37.5839 22.2713 37.7874 22.0663C38.0017 21.8641 38.2852 21.7515 38.5799 21.7515C38.8746 21.7515 39.1581 21.8641 39.3724 22.0663C39.5759 22.2713 39.6901 22.5484 39.6901 22.8372C39.6901 23.126 39.5759 23.4031 39.3724 23.6081ZM38.1021 23.3194C38.1635 23.3832 38.2377 23.4334 38.3197 23.4667C38.4018 23.5 38.4899 23.5157 38.5785 23.5128C38.6674 23.5156 38.756 23.4999 38.8385 23.4665C38.921 23.4332 38.9957 23.3831 39.0577 23.3194C39.1205 23.2533 39.1695 23.1753 39.2017 23.09C39.2339 23.0047 39.2488 22.9139 39.2454 22.8228C39.2489 22.7312 39.234 22.6399 39.2018 22.5542C39.1696 22.4684 39.1206 22.3899 39.0577 22.3233C38.9951 22.2605 38.9203 22.2112 38.8378 22.1784C38.7554 22.1456 38.6671 22.1301 38.5785 22.1327C38.4902 22.13 38.4023 22.1455 38.3204 22.1783C38.2384 22.2111 38.1641 22.2604 38.1021 22.3233C38.0387 22.3895 37.9893 22.468 37.9571 22.5538C37.9248 22.6397 37.9103 22.7312 37.9144 22.8228C37.9083 22.9163 37.9219 23.0101 37.9542 23.0981C37.9866 23.1861 38.0369 23.2664 38.1021 23.3338V23.3194Z" fill="#81D3EB"/>
<path d="M41.2 22.1989C41.1066 22.1917 41.0128 22.2075 40.9268 22.2447C40.8408 22.2819 40.7651 22.3395 40.7063 22.4125C40.586 22.5801 40.5269 22.784 40.5389 22.99V23.8937H40.0942V21.7918H40.5389V22.2162C40.608 22.087 40.707 21.9761 40.8276 21.8928C40.9411 21.8102 41.077 21.7639 41.2174 21.76V22.2104L41.2 22.1989Z" fill="#81D3EB"/>
<path d="M42.0141 22.7505V23.9054H41.5695V21.7919H42.0141V22.1788C42.0768 22.0497 42.1775 21.9428 42.3028 21.8728C42.4277 21.7984 42.5704 21.7595 42.7157 21.7602C42.858 21.7476 43.0007 21.7809 43.1227 21.8552C43.2448 21.9295 43.3399 22.0408 43.3942 22.173C43.4813 22.0459 43.5981 21.9419 43.7344 21.8699C43.8707 21.798 44.0225 21.7603 44.1766 21.7602C44.2826 21.7563 44.3884 21.7737 44.4876 21.8114C44.5867 21.8491 44.6773 21.9063 44.7541 21.9796C44.8304 22.0648 44.8891 22.1643 44.9267 22.2723C44.9644 22.3804 44.9803 22.4948 44.9735 22.609V23.9025H44.5289V22.7476C44.5289 22.3578 44.3672 22.1701 44.0438 22.1701C43.8995 22.1675 43.7594 22.219 43.6511 22.3145C43.5927 22.3682 43.5466 22.434 43.5162 22.5073C43.4858 22.5806 43.4717 22.6596 43.475 22.7389V23.9111H43.0304V22.7562C43.0415 22.6015 43.0041 22.4471 42.9236 22.3145C42.8828 22.2654 42.8308 22.2269 42.772 22.2023C42.7132 22.1777 42.6493 22.1676 42.5858 22.173C42.4373 22.1705 42.2936 22.2253 42.1844 22.3261C42.1286 22.3815 42.0847 22.4477 42.0555 22.5207C42.0262 22.5937 42.0121 22.6719 42.0141 22.7505Z" fill="#81D3EB"/>
<path d="M47.2025 23.8907H46.7983V23.602C46.7132 23.7044 46.6056 23.7858 46.4839 23.8399C46.3622 23.894 46.2297 23.9193 46.0967 23.9138C45.8982 23.9216 45.7039 23.8558 45.551 23.729C45.4797 23.6674 45.4231 23.5905 45.3856 23.504C45.3482 23.4176 45.3307 23.3237 45.3345 23.2296C45.3285 23.1386 45.3468 23.0477 45.3874 22.966C45.4279 22.8844 45.4894 22.8149 45.5654 22.7647C45.7521 22.6519 45.9683 22.5976 46.1862 22.6088H46.7636V22.5308C46.7636 22.2421 46.6077 22.1093 46.2959 22.1093C46.0761 22.1183 45.864 22.1927 45.6867 22.323L45.4875 22.0342C45.7327 21.8361 46.0384 21.7281 46.3537 21.7282C46.5727 21.7186 46.7883 21.786 46.9629 21.9188C47.0438 21.9905 47.1073 22.0798 47.1484 22.18C47.1894 22.2801 47.2069 22.3883 47.1996 22.4962L47.2025 23.8907ZM46.7579 23.1054V22.9264H46.2584C45.9379 22.9264 45.7791 23.0274 45.7791 23.2151C45.7764 23.2615 45.7859 23.3077 45.8067 23.3493C45.8275 23.3908 45.8588 23.4262 45.8975 23.4519C45.998 23.5104 46.1133 23.5385 46.2295 23.5327C46.3623 23.5348 46.4922 23.4932 46.5991 23.4143C46.6479 23.3789 46.6878 23.3325 46.7154 23.2788C46.743 23.2252 46.7575 23.1658 46.7579 23.1054Z" fill="#81D3EB"/>
<path d="M48.8713 23.6224C48.7728 23.5159 48.6966 23.3908 48.647 23.2545C48.5974 23.1182 48.5755 22.9733 48.5826 22.8284C48.5758 22.6834 48.5995 22.5385 48.6522 22.4033C48.7049 22.268 48.7855 22.1453 48.8886 22.0431C48.9845 21.9489 49.0983 21.8748 49.2232 21.8252C49.3482 21.7756 49.4818 21.7515 49.6162 21.7544C49.7506 21.7525 49.8834 21.7842 50.0024 21.8467C50.1214 21.9093 50.2229 22.0006 50.2976 22.1124V20.9575H50.7278V23.8996H50.286V23.582C50.2058 23.6965 50.0976 23.7887 49.9719 23.8498C49.8461 23.911 49.7068 23.939 49.5671 23.9314C49.4362 23.9303 49.3068 23.9023 49.1871 23.8492C49.0674 23.796 48.9599 23.7188 48.8713 23.6224ZM49.0186 22.8458C49.0148 22.937 49.0301 23.028 49.0634 23.113C49.0967 23.1979 49.1473 23.2751 49.212 23.3395C49.2713 23.4002 49.3423 23.4484 49.4207 23.4812C49.4991 23.5139 49.5832 23.5305 49.6682 23.53C49.7517 23.5323 49.8346 23.5165 49.9114 23.4836C49.9882 23.4507 50.0569 23.4015 50.1128 23.3395C50.2357 23.2051 50.301 23.0278 50.2947 22.8458C50.3007 22.6603 50.2357 22.4796 50.1128 22.3405C50.0577 22.276 49.989 22.2244 49.9116 22.1895C49.8343 22.1546 49.7502 22.1371 49.6653 22.1384C49.5792 22.1376 49.494 22.1552 49.4153 22.1901C49.3367 22.2249 49.2663 22.2762 49.2091 22.3405C49.0816 22.4773 49.0131 22.6588 49.0186 22.8458Z" fill="#81D3EB"/>
<path d="M53.2397 23.0304H51.594C51.5979 23.1046 51.6189 23.1769 51.6555 23.2415C51.6921 23.3061 51.7432 23.3614 51.8048 23.4029C51.9343 23.4954 52.0902 23.544 52.2494 23.5415C52.3618 23.5488 52.4744 23.5302 52.5785 23.4872C52.6827 23.4441 52.7755 23.3778 52.8499 23.2932L53.104 23.5819C52.9892 23.6995 52.851 23.7916 52.6983 23.8522C52.5456 23.9129 52.3818 23.9408 52.2176 23.9341C51.9372 23.9418 51.6652 23.838 51.4612 23.6454C51.3561 23.5426 51.2741 23.4186 51.2203 23.2818C51.1666 23.1449 51.1424 22.9983 51.1494 22.8514C51.1426 22.7045 51.1675 22.5579 51.2223 22.4214C51.2771 22.2849 51.3605 22.1618 51.467 22.0603C51.6688 21.8699 51.9373 21.7662 52.2147 21.7716C52.482 21.7645 52.7424 21.8572 52.9452 22.0315C53.0437 22.1217 53.1208 22.2328 53.1707 22.3568C53.2207 22.4807 53.2423 22.6142 53.2339 22.7475L53.2397 23.0304ZM51.594 22.6811H52.8037C52.8086 22.605 52.796 22.5288 52.767 22.4582C52.738 22.3877 52.6933 22.3247 52.6363 22.274C52.5222 22.1769 52.3761 22.1254 52.2263 22.1296C52.0674 22.1294 51.9129 22.1822 51.7874 22.2798C51.7249 22.3258 51.6746 22.3865 51.6409 22.4564C51.6072 22.5264 51.5911 22.6035 51.594 22.6811Z" fill="#81D3EB"/>
<path d="M4.59586 25.219C4.54467 25.1653 4.51611 25.094 4.51611 25.0198C4.51611 24.9456 4.54467 24.8743 4.59586 24.8206C4.6494 24.7702 4.72013 24.7422 4.79363 24.7422C4.86713 24.7422 4.93786 24.7702 4.9914 24.8206C5.0271 24.8609 5.05079 24.9105 5.05978 24.9636C5.06877 25.0168 5.06271 25.0714 5.04228 25.1213C5.02185 25.1711 4.98787 25.2143 4.94418 25.2458C4.90049 25.2774 4.84884 25.2961 4.79507 25.2998C4.75811 25.3006 4.72138 25.2939 4.68712 25.28C4.65286 25.2661 4.62181 25.2453 4.59586 25.219ZM5.01162 27.7482H4.56698V25.6376H5.01162V27.7482Z" fill="#81D3EB"/>
<path d="M5.99907 26.6079V27.7483H5.55444V25.6378H5.99907V26.0246C6.06045 25.9163 6.14552 25.8233 6.24792 25.7525C6.35033 25.6817 6.46742 25.635 6.59043 25.6158C6.71344 25.5966 6.83919 25.6055 6.95828 25.6418C7.07737 25.6781 7.1867 25.7409 7.27811 25.8254C7.35592 25.9098 7.41575 26.0091 7.45397 26.1173C7.49219 26.2255 7.508 26.3403 7.50043 26.4548V27.7483H7.05579V26.5934C7.05579 26.2036 6.89411 26.016 6.57074 26.016C6.42227 26.0135 6.27854 26.0683 6.16942 26.169C6.1118 26.2261 6.06685 26.2947 6.0375 26.3703C6.00815 26.4459 5.99505 26.5268 5.99907 26.6079Z" fill="#81D3EB"/>
<path d="M8.55421 27.748L7.70825 25.6375H8.16732L8.81117 27.2341L9.44058 25.6375H9.89965L9.05081 27.748H8.55421Z" fill="#81D3EB"/>
<path d="M12.1286 26.8877H10.4742C10.4785 26.9614 10.4998 27.0331 10.5364 27.0972C10.5729 27.1613 10.6238 27.2161 10.685 27.2573C10.8138 27.3518 10.9699 27.4015 11.1296 27.3988C11.2421 27.4061 11.3547 27.3875 11.4588 27.3445C11.5629 27.3014 11.6557 27.2351 11.7302 27.1505L11.9842 27.4392C11.8692 27.5565 11.7309 27.6484 11.5783 27.709C11.4257 27.7697 11.262 27.7978 11.0979 27.7914C10.8174 27.7991 10.5454 27.6953 10.3414 27.5027C10.2332 27.3999 10.1483 27.275 10.0925 27.1365C10.0367 26.9981 10.0113 26.8492 10.018 26.7001C10.0113 26.5532 10.0362 26.4065 10.091 26.27C10.1458 26.1336 10.2292 26.0104 10.3356 25.909C10.5376 25.7188 10.806 25.6152 11.0834 25.6203C11.3507 25.6132 11.6111 25.7058 11.8139 25.8801C11.9124 25.9703 11.9895 26.0815 12.0394 26.2054C12.0894 26.3293 12.111 26.4628 12.1026 26.5961L12.1286 26.8877ZM10.4742 26.5384H11.684C11.6888 26.4623 11.6762 26.3861 11.6472 26.3155C11.6182 26.245 11.5735 26.182 11.5165 26.1313C11.4024 26.0342 11.2563 25.9827 11.1065 25.9869C10.9474 25.9853 10.7925 26.0383 10.6677 26.1371C10.6052 26.1831 10.5549 26.2438 10.5211 26.3137C10.4874 26.3837 10.4713 26.4608 10.4742 26.5384Z" fill="#81D3EB"/>
<path d="M14.0198 27.119C14.0229 27.2106 14.0049 27.3016 13.9674 27.3852C13.9299 27.4688 13.8737 27.5426 13.8032 27.6012C13.6431 27.7243 13.445 27.7877 13.2431 27.7802C13.0798 27.7793 12.9178 27.751 12.7639 27.6964C12.6056 27.6455 12.4579 27.5663 12.3279 27.4626L12.5415 27.119C12.7408 27.2914 12.9916 27.3929 13.2547 27.4077C13.3392 27.4127 13.4229 27.3882 13.4914 27.3384C13.5194 27.3185 13.5422 27.292 13.5578 27.2613C13.5733 27.2307 13.5813 27.1967 13.5809 27.1623C13.5809 27.0555 13.4395 26.9602 13.1594 26.8736L13.1132 26.8563C12.6715 26.7379 12.452 26.5387 12.452 26.2615C12.4503 26.1706 12.4701 26.0807 12.5097 25.9989C12.5494 25.9171 12.6078 25.8459 12.6801 25.7909C12.8536 25.6683 13.0626 25.6064 13.2749 25.6148C13.5215 25.6158 13.762 25.6913 13.9649 25.8313L13.7975 26.1605C13.6329 26.0468 13.4374 25.9864 13.2374 25.9872C13.1482 25.9841 13.0597 26.004 12.9804 26.045C12.9496 26.062 12.9242 26.0872 12.9069 26.1177C12.8896 26.1483 12.881 26.1831 12.8822 26.2182C12.8816 26.251 12.8913 26.2831 12.9099 26.3101C12.9286 26.337 12.9553 26.3574 12.9862 26.3683C13.0497 26.3991 13.1165 26.4223 13.1854 26.4376C13.2625 26.4548 13.3386 26.476 13.4135 26.5011C13.4799 26.5214 13.5434 26.5445 13.6069 26.5704C13.6762 26.6027 13.7428 26.6404 13.8061 26.683C13.8759 26.7315 13.9321 26.797 13.9695 26.8733C14.0069 26.9496 14.0242 27.0342 14.0198 27.119Z" fill="#81D3EB"/>
<path d="M14.9726 25.9956V27.0668C14.9681 27.1535 14.9959 27.2389 15.0505 27.3064C15.079 27.3364 15.1136 27.3599 15.152 27.3753C15.1903 27.3908 15.2316 27.3978 15.2729 27.3959C15.3282 27.3953 15.3827 27.3826 15.4326 27.3587C15.4825 27.3347 15.5265 27.3001 15.5616 27.2573L15.7435 27.5692C15.6045 27.703 15.4196 27.7784 15.2267 27.7799C15.1368 27.7813 15.0476 27.7646 14.9643 27.7308C14.881 27.6971 14.8052 27.6471 14.7416 27.5836C14.6738 27.514 14.621 27.4312 14.5867 27.3402C14.5525 27.2493 14.5374 27.1523 14.5424 27.0552V25.9956H14.2623V25.6376H14.528V24.9678H14.9726V25.6289H15.5269V25.987L14.9726 25.9956Z" fill="#81D3EB"/>
<path d="M16.0119 25.219C15.9607 25.1653 15.9321 25.094 15.9321 25.0198C15.9321 24.9456 15.9607 24.8743 16.0119 24.8206C16.0654 24.7702 16.1361 24.7422 16.2096 24.7422C16.2831 24.7422 16.3539 24.7702 16.4074 24.8206C16.4586 24.8743 16.4872 24.9456 16.4872 25.0198C16.4872 25.094 16.4586 25.1653 16.4074 25.219C16.3539 25.2693 16.2831 25.2974 16.2096 25.2974C16.1361 25.2974 16.0654 25.2693 16.0119 25.219ZM16.4276 27.7482H15.983V25.6376H16.4276V27.7482Z" fill="#81D3EB"/>
<path d="M17.4151 26.6077V27.7482H16.9705V25.6376H17.4151V26.0245C17.477 25.8948 17.5779 25.7878 17.7038 25.7185C17.8287 25.6441 17.9714 25.6052 18.1167 25.6059C18.259 25.5933 18.4017 25.6266 18.5237 25.7009C18.6458 25.7752 18.7409 25.8865 18.7952 26.0187C18.8823 25.8916 18.9991 25.7876 19.1354 25.7156C19.2717 25.6437 19.4235 25.606 19.5776 25.6059C19.6836 25.602 19.7894 25.6194 19.8886 25.6571C19.9877 25.6948 20.0783 25.752 20.1551 25.8253C20.2314 25.9105 20.2901 26.01 20.3277 26.118C20.3654 26.2261 20.3813 26.3405 20.3745 26.4547V27.7482H19.9299V26.5933C19.9299 26.2035 19.7682 26.0158 19.4448 26.0158C19.3005 26.0132 19.1604 26.0647 19.0521 26.1602C18.9935 26.2138 18.9474 26.2795 18.917 26.3529C18.8865 26.4262 18.8725 26.5053 18.876 26.5846V27.7568H18.4314V26.6019C18.4429 26.4472 18.4055 26.2927 18.3246 26.1602C18.2838 26.1111 18.2318 26.0727 18.173 26.048C18.1142 26.0234 18.0503 26.0133 17.9868 26.0187C17.8383 26.0162 17.6946 26.071 17.5854 26.1718C17.5282 26.2285 17.4834 26.2966 17.4541 26.3717C17.4248 26.4468 17.4115 26.5272 17.4151 26.6077Z" fill="#81D3EB"/>
<path d="M22.8574 26.8877H21.2031C21.2074 26.9614 21.2286 27.0331 21.2652 27.0972C21.3017 27.1613 21.3526 27.2161 21.4138 27.2573C21.5426 27.3518 21.6988 27.4015 21.8585 27.3988C21.9709 27.4061 22.0835 27.3875 22.1876 27.3445C22.2917 27.3014 22.3846 27.2351 22.459 27.1505L22.7131 27.4392C22.5981 27.5565 22.4598 27.6484 22.3071 27.709C22.1545 27.7697 21.9908 27.7978 21.8267 27.7914C21.5463 27.7991 21.2742 27.6953 21.0702 27.5027C20.9641 27.3989 20.8814 27.2735 20.8276 27.1351C20.7738 26.9967 20.7502 26.8484 20.7584 26.7001C20.7517 26.5532 20.7766 26.4065 20.8313 26.27C20.8861 26.1336 20.9696 26.0104 21.076 25.909C21.278 25.7188 21.5464 25.6152 21.8238 25.6203C22.0911 25.6132 22.3515 25.7058 22.5543 25.8801C22.6528 25.9703 22.7299 26.0815 22.7798 26.2054C22.8298 26.3293 22.8514 26.4628 22.843 26.5961L22.8574 26.8877ZM21.2031 26.5384H22.4128C22.4176 26.4623 22.4051 26.3861 22.376 26.3155C22.347 26.245 22.3023 26.182 22.2453 26.1313C22.1312 26.0342 21.9852 25.9827 21.8354 25.9869C21.6762 25.9853 21.5213 26.0383 21.3965 26.1371C21.334 26.1831 21.2837 26.2438 21.25 26.3137C21.2163 26.3837 21.2002 26.4608 21.2031 26.5384Z" fill="#81D3EB"/>
<path d="M23.689 26.6077V27.7482H23.2444V25.6376H23.689V26.0245C23.7553 25.8978 23.8552 25.7919 23.9777 25.7184C24.0995 25.6443 24.2394 25.6053 24.3819 25.6058C24.488 25.6016 24.5938 25.6189 24.6931 25.6566C24.7923 25.6943 24.8829 25.7517 24.9594 25.8253C25.0372 25.9096 25.097 26.0089 25.1353 26.1171C25.1735 26.2253 25.1893 26.3402 25.1817 26.4547V27.7482H24.7428V26.5933C24.7428 26.2035 24.5812 26.0158 24.2578 26.0158C24.1093 26.0133 23.9656 26.0681 23.8565 26.1688C23.7994 26.2262 23.755 26.2949 23.7261 26.3705C23.6973 26.4461 23.6846 26.5269 23.689 26.6077Z" fill="#81D3EB"/>
<path d="M26.2298 25.9956V27.0668C26.2253 27.1535 26.2531 27.2389 26.3077 27.3064C26.3362 27.3364 26.3708 27.3599 26.4092 27.3753C26.4475 27.3908 26.4888 27.3978 26.5301 27.3959C26.5829 27.3933 26.6347 27.3796 26.6819 27.3557C26.7292 27.3319 26.7709 27.2983 26.8043 27.2573L26.9862 27.5692C26.8473 27.703 26.6623 27.7784 26.4694 27.7799C26.3795 27.7814 26.2903 27.7648 26.2069 27.7311C26.1236 27.6974 26.0479 27.6472 25.9844 27.5836C25.9165 27.514 25.8638 27.4312 25.8295 27.3402C25.7952 27.2493 25.7801 27.1523 25.7852 27.0552V25.9956H25.5195V25.6376H25.7852V24.9678H26.2298V25.6289H26.7841V25.987L26.2298 25.9956Z" fill="#81D3EB"/>
<path d="M28.99 27.4654C28.7755 27.6685 28.4913 27.7816 28.196 27.7816C27.9006 27.7816 27.6165 27.6685 27.402 27.4654C27.1985 27.2604 27.0844 26.9833 27.0844 26.6945C27.0844 26.4057 27.1985 26.1286 27.402 25.9236C27.6165 25.7206 27.9006 25.6074 28.196 25.6074C28.4913 25.6074 28.7755 25.7206 28.99 25.9236C29.1934 26.1286 29.3076 26.4057 29.3076 26.6945C29.3076 26.9833 29.1934 27.2604 28.99 27.4654ZM27.7167 27.1767C27.7788 27.2404 27.8535 27.2906 27.936 27.3239C28.0185 27.3572 28.107 27.3729 28.196 27.3701C28.2845 27.3732 28.3727 27.3576 28.4548 27.3243C28.5369 27.2909 28.611 27.2407 28.6724 27.1767C28.7953 27.0399 28.8633 26.8626 28.8633 26.6787C28.8633 26.4948 28.7953 26.3174 28.6724 26.1806C28.6105 26.1176 28.5362 26.0681 28.4542 26.0353C28.3722 26.0025 28.2842 25.9871 28.196 25.9901C28.1073 25.9874 28.019 26.003 27.9366 26.0357C27.8542 26.0685 27.7793 26.1178 27.7167 26.1806C27.6538 26.2472 27.6049 26.3257 27.5726 26.4115C27.5404 26.4972 27.5256 26.5886 27.529 26.6801C27.5237 26.7736 27.5376 26.8672 27.5699 26.9551C27.6021 27.043 27.6521 27.1233 27.7167 27.1911V27.1767Z" fill="#81D3EB"/>
<path d="M32.6624 26.8879H31.0081C31.0117 26.9617 31.0327 27.0336 31.0693 27.0978C31.1059 27.162 31.1571 27.2167 31.2188 27.2574C31.3476 27.3519 31.5038 27.4016 31.6635 27.3989C31.7759 27.4062 31.8885 27.3876 31.9926 27.3446C32.0967 27.3015 32.1896 27.2352 32.264 27.1506L32.5181 27.4393C32.4028 27.5563 32.2645 27.648 32.1119 27.7087C31.9593 27.7693 31.7958 27.7975 31.6317 27.7916C31.3513 27.7993 31.0792 27.6954 30.8752 27.5028C30.7702 27.4 30.6881 27.2761 30.6344 27.1392C30.5806 27.0024 30.5565 26.8557 30.5634 26.7089C30.5567 26.562 30.5816 26.4153 30.6363 26.2788C30.6911 26.1424 30.7746 26.0192 30.881 25.9178C31.0829 25.7273 31.3514 25.6236 31.6288 25.629C31.8961 25.622 32.1565 25.7146 32.3593 25.8889C32.4604 25.9778 32.5402 26.0883 32.5927 26.2123C32.6452 26.3362 32.669 26.4705 32.6624 26.6049V26.8879ZM31.0081 26.5385H32.2178C32.2226 26.4624 32.21 26.3862 32.181 26.3156C32.152 26.2451 32.1073 26.1821 32.0503 26.1314C31.9362 26.0343 31.7902 25.9829 31.6404 25.9871C31.4812 25.9854 31.3263 26.0384 31.2015 26.1372C31.139 26.1833 31.0887 26.2439 31.055 26.3138C31.0213 26.3838 31.0051 26.4609 31.0081 26.5385Z" fill="#81D3EB"/>
<path d="M33.4941 26.6077V27.7482H33.0494V25.6376H33.4941V26.0245C33.5559 25.8948 33.6569 25.7878 33.7828 25.7185C33.9076 25.6441 34.0504 25.6052 34.1957 25.6059C34.338 25.5933 34.4806 25.6266 34.6027 25.7009C34.7248 25.7752 34.8199 25.8865 34.8742 26.0187C34.9615 25.8918 35.0783 25.7879 35.2146 25.716C35.3508 25.6441 35.5025 25.6063 35.6566 25.6059C35.7626 25.602 35.8683 25.6194 35.9675 25.6571C36.0667 25.6948 36.1573 25.752 36.234 25.8253C36.3115 25.9098 36.3709 26.0092 36.4086 26.1174C36.4463 26.2256 36.4616 26.3404 36.4535 26.4547V27.7482H36.0031V26.5933C36.0031 26.2035 35.8414 26.0158 35.5209 26.0158C35.3756 26.0125 35.2343 26.064 35.1253 26.1602C35.0672 26.2141 35.0214 26.28 34.991 26.3532C34.9606 26.4264 34.9463 26.5054 34.9492 26.5846V27.7568H34.5046V26.6019C34.5175 26.447 34.48 26.2921 34.3978 26.1602C34.357 26.1111 34.305 26.0727 34.2462 26.048C34.1874 26.0234 34.1235 26.0133 34.06 26.0187C33.9115 26.0162 33.7678 26.071 33.6586 26.1718C33.6024 26.229 33.5588 26.2973 33.5304 26.3724C33.5021 26.4475 33.4897 26.5276 33.4941 26.6077Z" fill="#81D3EB"/>
<path d="M39.4676 27.119C39.4708 27.2109 39.4526 27.3022 39.4146 27.3859C39.3765 27.4695 39.3195 27.5432 39.2482 27.6012C39.0881 27.7243 38.8899 27.7877 38.6881 27.7802C38.357 27.7742 38.0364 27.663 37.7728 27.4626L37.9865 27.119C38.1869 27.2914 38.4386 27.3929 38.7025 27.4077C38.787 27.4122 38.8705 27.3878 38.9393 27.3384C38.9664 27.3178 38.9883 27.2912 39.0034 27.2606C39.0184 27.23 39.0261 27.1964 39.0259 27.1623C39.0259 27.0555 38.8873 26.9602 38.6072 26.8736L38.5581 26.8563C38.1193 26.7379 37.8999 26.5387 37.8999 26.2615C37.8982 26.1706 37.9179 26.0807 37.9576 25.9989C37.9972 25.9171 38.0556 25.8459 38.128 25.7909C38.3003 25.6683 38.5085 25.6064 38.7198 25.6148C38.9665 25.6154 39.2071 25.691 39.4099 25.8313L39.2453 26.1605C39.0804 26.0473 38.8851 25.9869 38.6852 25.9872C38.596 25.9838 38.5074 26.0037 38.4282 26.045C38.3972 26.0618 38.3713 26.0869 38.3535 26.1175C38.3357 26.148 38.3266 26.1828 38.3272 26.2182C38.3265 26.251 38.3362 26.2831 38.3549 26.3101C38.3735 26.337 38.4002 26.3574 38.4311 26.3683C38.4958 26.3985 38.5636 26.4218 38.6332 26.4376C38.7169 26.4578 38.7949 26.478 38.8613 26.5011C38.9277 26.5242 38.9912 26.5445 39.0519 26.5704C39.1224 26.602 39.19 26.6397 39.254 26.683C39.3237 26.7315 39.3799 26.797 39.4173 26.8733C39.4547 26.9496 39.472 27.0342 39.4676 27.119Z" fill="#81D3EB"/>
<path d="M40.4146 25.9956V27.0668C40.411 27.1539 40.4398 27.2393 40.4955 27.3064C40.524 27.3364 40.5586 27.3599 40.5969 27.3753C40.6353 27.3908 40.6765 27.3978 40.7178 27.3959C40.7706 27.393 40.8222 27.3791 40.8694 27.3553C40.9166 27.3314 40.9584 27.2981 40.9921 27.2573L41.174 27.5692C41.035 27.703 40.8501 27.7784 40.6572 27.7799C40.5673 27.7814 40.478 27.7648 40.3947 27.7311C40.3113 27.6974 40.2357 27.6472 40.1721 27.5836C40.1043 27.514 40.0515 27.4312 40.0173 27.3402C39.983 27.2493 39.9679 27.1523 39.9729 27.0552V25.9956H39.7073V25.6376H39.9729V24.9678H40.4146V25.6289H40.9719V25.987L40.4146 25.9956Z" fill="#81D3EB"/>
<path d="M43.1373 27.7482H42.7331V27.4595C42.648 27.5619 42.5404 27.6433 42.4188 27.6974C42.2971 27.7515 42.1646 27.7768 42.0315 27.7713C41.8331 27.7791 41.6387 27.7133 41.4858 27.5866C41.4145 27.525 41.358 27.448 41.3205 27.3616C41.283 27.2751 41.2655 27.1813 41.2693 27.0871C41.2634 26.9964 41.2813 26.9058 41.3213 26.8242C41.3613 26.7427 41.4221 26.673 41.4974 26.6222C41.6852 26.5095 41.9023 26.4552 42.121 26.4663H42.6985V26.4115C42.6985 26.1227 42.5426 25.9899 42.2307 25.9899C42.0108 25.9984 41.7986 26.0729 41.6215 26.2036L41.4223 25.9149C41.6675 25.7167 41.9732 25.6087 42.2885 25.6088C42.5076 25.5992 42.7231 25.6666 42.8977 25.7994C42.9787 25.8711 43.0421 25.9605 43.0832 26.0606C43.1242 26.1607 43.1418 26.2689 43.1344 26.3768L43.1373 27.7482ZM42.6927 26.9629V26.7839H42.1932C41.8727 26.7839 41.7139 26.885 41.7139 27.0871C41.7112 27.133 41.7207 27.1789 41.7415 27.22C41.7623 27.2611 41.7936 27.2959 41.8323 27.3209C41.932 27.3818 42.0477 27.411 42.1643 27.4047C42.2978 27.4082 42.4284 27.3653 42.5339 27.2834C42.5849 27.2474 42.6262 27.1993 42.6539 27.1433C42.6817 27.0873 42.695 27.0253 42.6927 26.9629Z" fill="#81D3EB"/>
<path d="M44.7628 26.0564C44.6689 26.0488 44.5745 26.0643 44.4879 26.1015C44.4014 26.1388 44.3252 26.1966 44.2662 26.2701C44.1482 26.4387 44.0902 26.642 44.1016 26.8475V27.7512H43.657V25.6406H44.1016V26.0651C44.1699 25.9352 44.2691 25.8242 44.3903 25.7417C44.5035 25.6583 44.6396 25.6119 44.7801 25.6089V26.0593L44.7628 26.0564Z" fill="#81D3EB"/>
<path d="M45.678 25.9956V27.0668C45.6744 27.1539 45.7032 27.2393 45.7589 27.3064C45.7874 27.3364 45.8219 27.3599 45.8603 27.3753C45.8987 27.3908 45.9399 27.3978 45.9812 27.3959C46.034 27.393 46.0856 27.3791 46.1328 27.3553C46.18 27.3314 46.2218 27.2981 46.2555 27.2573L46.4374 27.5692C46.2977 27.7037 46.1116 27.7791 45.9177 27.7799C45.8282 27.7812 45.7395 27.7645 45.6566 27.7307C45.5738 27.697 45.4986 27.647 45.4355 27.5836C45.3676 27.514 45.3149 27.4312 45.2806 27.3402C45.2464 27.2493 45.2313 27.1523 45.2363 27.0552V25.9956H44.9678V25.6376H45.2421V24.9678H45.6838V25.6289H46.241V25.987L45.678 25.9956Z" fill="#81D3EB"/>
<path d="M48.1668 26.7809V25.626H48.6114V27.7365H48.1668V27.3641C48.0979 27.4899 47.9964 27.595 47.873 27.6681C47.7495 27.7413 47.6087 27.7799 47.4652 27.7798C47.3593 27.7847 47.2535 27.7681 47.1543 27.7309C47.055 27.6936 46.9643 27.6366 46.8878 27.5633C46.8106 27.478 46.7511 27.3781 46.713 27.2695C46.6748 27.161 46.6587 27.0459 46.6655 26.931V25.6375H47.1101V26.7924C47.1101 27.1822 47.2718 27.3699 47.5951 27.3699C47.7436 27.3723 47.8873 27.3175 47.9965 27.2168C48.0537 27.1601 48.0985 27.092 48.1278 27.0169C48.1571 26.9418 48.1704 26.8614 48.1668 26.7809Z" fill="#81D3EB"/>
<path d="M50.2832 25.6059C50.4176 25.6031 50.5512 25.6272 50.6762 25.6768C50.8011 25.7263 50.9149 25.8004 51.0108 25.8947C51.1099 25.9984 51.1867 26.1213 51.2363 26.2559C51.286 26.3905 51.3075 26.5339 51.2995 26.6771C51.3073 26.8216 51.2858 26.9662 51.2361 27.1022C51.1865 27.2382 51.1099 27.3627 51.0108 27.4682C50.9207 27.5679 50.81 27.6468 50.6863 27.6994C50.5627 27.752 50.4291 27.7772 50.2948 27.7731C50.1605 27.7689 50.0287 27.7357 49.9086 27.6755C49.7884 27.6154 49.6828 27.5299 49.5989 27.4249V28.5134H49.1543V25.6261H49.5989V25.9957C49.6688 25.8764 49.7688 25.7777 49.8889 25.7092C50.009 25.6408 50.145 25.6052 50.2832 25.6059ZM49.5903 26.6973C49.5865 26.7875 49.6006 26.8776 49.6319 26.9623C49.6631 27.0471 49.7108 27.1248 49.7722 27.191C49.8278 27.2536 49.8964 27.3033 49.9732 27.3367C50.05 27.3701 50.1331 27.3864 50.2168 27.3845C50.3017 27.385 50.3859 27.3684 50.4643 27.3356C50.5427 27.3029 50.6136 27.2547 50.673 27.1939C50.7377 27.1295 50.7883 27.0524 50.8216 26.9674C50.8549 26.8824 50.8702 26.7914 50.8664 26.7002C50.8719 26.5133 50.8034 26.3317 50.6759 26.1949C50.6183 26.1313 50.5478 26.0807 50.4692 26.0463C50.3905 26.012 50.3055 25.9947 50.2197 25.9957C50.135 25.9941 50.0511 26.0111 49.9737 26.0455C49.8964 26.0799 49.8276 26.1309 49.7722 26.1949C49.6493 26.334 49.5843 26.5147 49.5903 26.7002V26.6973Z" fill="#81D3EB"/>
<path d="M53.2223 27.1188C53.2254 27.2104 53.2075 27.3015 53.1699 27.385C53.1324 27.4686 53.0762 27.5425 53.0058 27.601C52.8456 27.7242 52.6475 27.7875 52.4456 27.78C52.2823 27.7791 52.1203 27.7508 51.9664 27.6963C51.8084 27.6447 51.6608 27.5655 51.5304 27.4624L51.7441 27.1188C51.9433 27.2912 52.1941 27.3928 52.4572 27.4076C52.5426 27.412 52.627 27.3876 52.6968 27.3383C52.724 27.3177 52.7459 27.291 52.7609 27.2604C52.776 27.2299 52.7837 27.1962 52.7834 27.1621C52.7834 27.0553 52.642 26.96 52.3619 26.8734L52.3157 26.8561C51.8769 26.7377 51.6574 26.5385 51.6574 26.2613C51.6557 26.1705 51.6755 26.0805 51.7151 25.9987C51.7548 25.9169 51.8132 25.8457 51.8855 25.7907C52.0577 25.6677 52.266 25.6057 52.4774 25.6146C52.724 25.6156 52.9645 25.6911 53.1674 25.8311L53 26.1603C52.8363 26.0471 52.6418 25.9866 52.4428 25.9871C52.3526 25.9837 52.2631 26.0036 52.1829 26.0448C52.1522 26.0618 52.1267 26.087 52.1094 26.1176C52.0921 26.1481 52.0835 26.1829 52.0847 26.218C52.0841 26.2508 52.0938 26.283 52.1124 26.3099C52.1311 26.3369 52.1578 26.3572 52.1887 26.3682C52.2522 26.3989 52.319 26.4221 52.3879 26.4375C52.465 26.4546 52.5411 26.4759 52.616 26.501C52.6824 26.5212 52.7459 26.5443 52.8094 26.5703C52.8787 26.6025 52.9453 26.6402 53.0086 26.6829C53.079 26.7308 53.1357 26.7962 53.1732 26.8726C53.2106 26.949 53.2276 27.0339 53.2223 27.1188Z" fill="#81D3EB"/>
<path d="M93.2565 22.0518C93.4351 22.0518 93.5798 21.907 93.5798 21.7284C93.5798 21.5498 93.4351 21.405 93.2565 21.405C93.0779 21.405 92.9331 21.5498 92.9331 21.7284C92.9331 21.907 93.0779 22.0518 93.2565 22.0518Z" fill="white"/>
<path d="M93.9032 27.8608C94.0818 27.8608 94.2266 27.7161 94.2266 27.5375C94.2266 27.3589 94.0818 27.2141 93.9032 27.2141C93.7246 27.2141 93.5798 27.3589 93.5798 27.5375C93.5798 27.7161 93.7246 27.8608 93.9032 27.8608Z" fill="white"/>
<path d="M94.8704 22.0518C95.049 22.0518 95.1937 21.907 95.1937 21.7284C95.1937 21.5498 95.049 21.405 94.8704 21.405C94.6918 21.405 94.547 21.5498 94.547 21.7284C94.547 21.907 94.6918 22.0518 94.8704 22.0518Z" fill="white"/>
<path d="M94.8704 23.0188C95.049 23.0188 95.1937 22.874 95.1937 22.6954C95.1937 22.5168 95.049 22.3721 94.8704 22.3721C94.6918 22.3721 94.547 22.5168 94.547 22.6954C94.547 22.874 94.6918 23.0188 94.8704 23.0188Z" fill="white"/>
<path d="M94.8704 26.8906C95.049 26.8906 95.1937 26.7459 95.1937 26.5673C95.1937 26.3887 95.049 26.2439 94.8704 26.2439C94.6918 26.2439 94.547 26.3887 94.547 26.5673C94.547 26.7459 94.6918 26.8906 94.8704 26.8906Z" fill="white"/>
<path d="M94.8704 27.8608C95.049 27.8608 95.1937 27.7161 95.1937 27.5375C95.1937 27.3589 95.049 27.2141 94.8704 27.2141C94.6918 27.2141 94.547 27.3589 94.547 27.5375C94.547 27.7161 94.6918 27.8608 94.8704 27.8608Z" fill="white"/>
<path d="M95.8376 22.0518C96.0162 22.0518 96.161 21.907 96.161 21.7284C96.161 21.5498 96.0162 21.405 95.8376 21.405C95.6591 21.405 95.5143 21.5498 95.5143 21.7284C95.5143 21.907 95.6591 22.0518 95.8376 22.0518Z" fill="white"/>
<path d="M95.8376 23.0188C96.0162 23.0188 96.161 22.874 96.161 22.6954C96.161 22.5168 96.0162 22.3721 95.8376 22.3721C95.6591 22.3721 95.5143 22.5168 95.5143 22.6954C95.5143 22.874 95.6591 23.0188 95.8376 23.0188Z" fill="white"/>
<path d="M95.8376 23.989C96.0162 23.989 96.161 23.8442 96.161 23.6657C96.161 23.4871 96.0162 23.3423 95.8376 23.3423C95.6591 23.3423 95.5143 23.4871 95.5143 23.6657C95.5143 23.8442 95.6591 23.989 95.8376 23.989Z" fill="white"/>
<path d="M95.8376 25.9233C96.0162 25.9233 96.161 25.7786 96.161 25.6C96.161 25.4214 96.0162 25.2766 95.8376 25.2766C95.6591 25.2766 95.5143 25.4214 95.5143 25.6C95.5143 25.7786 95.6591 25.9233 95.8376 25.9233Z" fill="white"/>
<path d="M95.8376 26.8906C96.0162 26.8906 96.161 26.7459 96.161 26.5673C96.161 26.3887 96.0162 26.2439 95.8376 26.2439C95.6591 26.2439 95.5143 26.3887 95.5143 26.5673C95.5143 26.7459 95.6591 26.8906 95.8376 26.8906Z" fill="white"/>
<path d="M95.8376 27.8608C96.0162 27.8608 96.161 27.7161 96.161 27.5375C96.161 27.3589 96.0162 27.2141 95.8376 27.2141C95.6591 27.2141 95.5143 27.3589 95.5143 27.5375C95.5143 27.7161 95.6591 27.8608 95.8376 27.8608Z" fill="white"/>
<path d="M96.8048 22.0518C96.9834 22.0518 97.1282 21.907 97.1282 21.7284C97.1282 21.5498 96.9834 21.405 96.8048 21.405C96.6262 21.405 96.4814 21.5498 96.4814 21.7284C96.4814 21.907 96.6262 22.0518 96.8048 22.0518Z" fill="white"/>
<path d="M96.8048 23.0188C96.9834 23.0188 97.1282 22.874 97.1282 22.6954C97.1282 22.5168 96.9834 22.3721 96.8048 22.3721C96.6262 22.3721 96.4814 22.5168 96.4814 22.6954C96.4814 22.874 96.6262 23.0188 96.8048 23.0188Z" fill="white"/>
<path d="M96.8048 23.989C96.9834 23.989 97.1282 23.8442 97.1282 23.6657C97.1282 23.4871 96.9834 23.3423 96.8048 23.3423C96.6262 23.3423 96.4814 23.4871 96.4814 23.6657C96.4814 23.8442 96.6262 23.989 96.8048 23.989Z" fill="white"/>
<path d="M96.8048 24.9563C96.9834 24.9563 97.1282 24.8115 97.1282 24.6329C97.1282 24.4543 96.9834 24.3096 96.8048 24.3096C96.6262 24.3096 96.4814 24.4543 96.4814 24.6329C96.4814 24.8115 96.6262 24.9563 96.8048 24.9563Z" fill="white"/>
<path d="M96.8048 25.9233C96.9834 25.9233 97.1282 25.7786 97.1282 25.6C97.1282 25.4214 96.9834 25.2766 96.8048 25.2766C96.6262 25.2766 96.4814 25.4214 96.4814 25.6C96.4814 25.7786 96.6262 25.9233 96.8048 25.9233Z" fill="white"/>
<path d="M96.8048 26.8906C96.9834 26.8906 97.1282 26.7459 97.1282 26.5673C97.1282 26.3887 96.9834 26.2439 96.8048 26.2439C96.6262 26.2439 96.4814 26.3887 96.4814 26.5673C96.4814 26.7459 96.6262 26.8906 96.8048 26.8906Z" fill="white"/>
<path d="M96.8048 27.8608C96.9834 27.8608 97.1282 27.7161 97.1282 27.5375C97.1282 27.3589 96.9834 27.2141 96.8048 27.2141C96.6262 27.2141 96.4814 27.3589 96.4814 27.5375C96.4814 27.7161 96.6262 27.8608 96.8048 27.8608Z" fill="white"/>
<path d="M97.7749 22.0518C97.9535 22.0518 98.0983 21.907 98.0983 21.7284C98.0983 21.5498 97.9535 21.405 97.7749 21.405C97.5963 21.405 97.4515 21.5498 97.4515 21.7284C97.4515 21.907 97.5963 22.0518 97.7749 22.0518Z" fill="white"/>
<path d="M97.7749 23.0188C97.9535 23.0188 98.0983 22.874 98.0983 22.6954C98.0983 22.5168 97.9535 22.3721 97.7749 22.3721C97.5963 22.3721 97.4515 22.5168 97.4515 22.6954C97.4515 22.874 97.5963 23.0188 97.7749 23.0188Z" fill="white"/>
<path d="M97.7749 23.989C97.9535 23.989 98.0983 23.8442 98.0983 23.6657C98.0983 23.4871 97.9535 23.3423 97.7749 23.3423C97.5963 23.3423 97.4515 23.4871 97.4515 23.6657C97.4515 23.8442 97.5963 23.989 97.7749 23.989Z" fill="white"/>
<path d="M97.7749 24.9563C97.9535 24.9563 98.0983 24.8115 98.0983 24.6329C98.0983 24.4543 97.9535 24.3096 97.7749 24.3096C97.5963 24.3096 97.4515 24.4543 97.4515 24.6329C97.4515 24.8115 97.5963 24.9563 97.7749 24.9563Z" fill="white"/>
<path d="M97.7749 25.9233C97.9535 25.9233 98.0983 25.7786 98.0983 25.6C98.0983 25.4214 97.9535 25.2766 97.7749 25.2766C97.5963 25.2766 97.4515 25.4214 97.4515 25.6C97.4515 25.7786 97.5963 25.9233 97.7749 25.9233Z" fill="white"/>
<path d="M97.7749 26.8906C97.9535 26.8906 98.0983 26.7459 98.0983 26.5673C98.0983 26.3887 97.9535 26.2439 97.7749 26.2439C97.5963 26.2439 97.4515 26.3887 97.4515 26.5673C97.4515 26.7459 97.5963 26.8906 97.7749 26.8906Z" fill="white"/>
<path d="M97.7749 27.8608C97.9535 27.8608 98.0983 27.7161 98.0983 27.5375C98.0983 27.3589 97.9535 27.2141 97.7749 27.2141C97.5963 27.2141 97.4515 27.3589 97.4515 27.5375C97.4515 27.7161 97.5963 27.8608 97.7749 27.8608Z" fill="white"/>
<path d="M98.7422 23.0188C98.9208 23.0188 99.0656 22.874 99.0656 22.6954C99.0656 22.5168 98.9208 22.3721 98.7422 22.3721C98.5636 22.3721 98.4188 22.5168 98.4188 22.6954C98.4188 22.874 98.5636 23.0188 98.7422 23.0188Z" fill="white"/>
<path d="M98.7422 23.989C98.9208 23.989 99.0656 23.8442 99.0656 23.6657C99.0656 23.4871 98.9208 23.3423 98.7422 23.3423C98.5636 23.3423 98.4188 23.4871 98.4188 23.6657C98.4188 23.8442 98.5636 23.989 98.7422 23.989Z" fill="white"/>
<path d="M98.7422 24.9563C98.9208 24.9563 99.0656 24.8115 99.0656 24.6329C99.0656 24.4543 98.9208 24.3096 98.7422 24.3096C98.5636 24.3096 98.4188 24.4543 98.4188 24.6329C98.4188 24.8115 98.5636 24.9563 98.7422 24.9563Z" fill="white"/>
<path d="M98.7422 25.9233C98.9208 25.9233 99.0656 25.7786 99.0656 25.6C99.0656 25.4214 98.9208 25.2766 98.7422 25.2766C98.5636 25.2766 98.4188 25.4214 98.4188 25.6C98.4188 25.7786 98.5636 25.9233 98.7422 25.9233Z" fill="white"/>
<path d="M98.7422 26.8906C98.9208 26.8906 99.0656 26.7459 99.0656 26.5673C99.0656 26.3887 98.9208 26.2439 98.7422 26.2439C98.5636 26.2439 98.4188 26.3887 98.4188 26.5673C98.4188 26.7459 98.5636 26.8906 98.7422 26.8906Z" fill="white"/>
<path d="M99.7094 23.989C99.8879 23.989 100.033 23.8442 100.033 23.6657C100.033 23.4871 99.8879 23.3423 99.7094 23.3423C99.5308 23.3423 99.386 23.4871 99.386 23.6657C99.386 23.8442 99.5308 23.989 99.7094 23.989Z" fill="white"/>
<path d="M99.7094 24.9563C99.8879 24.9563 100.033 24.8115 100.033 24.6329C100.033 24.4543 99.8879 24.3096 99.7094 24.3096C99.5308 24.3096 99.386 24.4543 99.386 24.6329C99.386 24.8115 99.5308 24.9563 99.7094 24.9563Z" fill="white"/>
<path d="M99.7094 25.9233C99.8879 25.9233 100.033 25.7786 100.033 25.6C100.033 25.4214 99.8879 25.2766 99.7094 25.2766C99.5308 25.2766 99.386 25.4214 99.386 25.6C99.386 25.7786 99.5308 25.9233 99.7094 25.9233Z" fill="white"/>
<path d="M100.677 24.9563C100.855 24.9563 101 24.8115 101 24.6329C101 24.4543 100.855 24.3096 100.677 24.3096C100.498 24.3096 100.353 24.4543 100.353 24.6329C100.353 24.8115 100.498 24.9563 100.677 24.9563Z" fill="white"/>
<path d="M55.8583 27.8577C56.3016 27.8577 56.661 27.4984 56.661 27.0551C56.661 26.6118 56.3016 26.2524 55.8583 26.2524C55.415 26.2524 55.0557 26.6118 55.0557 27.0551C55.0557 27.4984 55.415 27.8577 55.8583 27.8577Z" fill="white"/>
<path d="M61.7425 24.0266L61.3585 23.9717C60.628 23.862 60.0246 23.7378 60.0246 23.3394C60.0246 22.941 60.5039 22.6811 61.2459 22.6811C61.8484 22.6862 62.4416 22.8315 62.9782 23.1055C63.0329 23.136 63.0967 23.1454 63.1579 23.1322C63.219 23.1189 63.2732 23.0837 63.3102 23.0334C63.4142 22.8919 63.5066 22.7446 63.599 22.5916L63.7376 22.3693C63.7613 22.3374 63.7781 22.3009 63.7871 22.2621C63.796 22.2234 63.7968 22.1832 63.7895 22.1441C63.7798 22.1086 63.7627 22.0756 63.7393 22.0472C63.7159 22.0189 63.6868 21.9958 63.6538 21.9795C62.8984 21.5968 62.0609 21.4045 61.2141 21.4194C60.5368 21.3986 59.8676 21.5719 59.2855 21.9189C59.0271 22.0734 58.8135 22.2926 58.6656 22.5549C58.5178 22.8171 58.4409 23.1134 58.4424 23.4145C58.4424 24.4279 59.1382 25.0198 60.5703 25.2219L61.0005 25.2825C61.8926 25.4095 62.3748 25.5481 62.3748 25.9235C62.3748 26.2988 61.8695 26.5846 61.1188 26.5846C60.4348 26.5842 59.7632 26.4018 59.1729 26.0563C59.1158 26.018 59.0469 26.0013 58.9787 26.0092C58.9104 26.0172 58.8472 26.0492 58.8004 26.0996C58.708 26.2151 58.324 26.7492 58.2952 26.8156C58.2669 26.8741 58.2612 26.941 58.2794 27.0034C58.2975 27.0657 58.3381 27.1192 58.3933 27.1534C59.2232 27.6281 60.1657 27.8705 61.1217 27.855C61.8124 27.876 62.4953 27.7041 63.0937 27.3584C63.3615 27.1987 63.5825 26.9714 63.7345 26.6992C63.8866 26.4271 63.9643 26.1197 63.9599 25.808C63.9599 24.8379 63.215 24.2431 61.7425 24.0266Z" fill="white"/>
<path d="M83.5929 24.0265L83.2118 23.9717C82.4813 23.862 81.875 23.7378 81.875 23.3394C81.875 22.9409 82.3543 22.6811 83.0992 22.6811C83.7018 22.686 84.2949 22.8314 84.8315 23.1055C84.8857 23.1358 84.9491 23.1451 85.0098 23.1318C85.0704 23.1185 85.1241 23.0835 85.1607 23.0333C85.2646 22.8919 85.3599 22.7446 85.4494 22.5916L85.588 22.3693C85.6117 22.3373 85.6285 22.3009 85.6375 22.2621C85.6464 22.2234 85.6473 22.1832 85.6399 22.1441C85.6303 22.1086 85.6131 22.0756 85.5898 22.0472C85.5664 22.0189 85.5372 21.9958 85.5042 21.9795C84.7497 21.5973 83.9132 21.405 83.0674 21.4194C82.3892 21.3987 81.7191 21.572 81.1359 21.9189C80.8775 22.0734 80.6639 22.2926 80.516 22.5549C80.3682 22.8171 80.2913 23.1134 80.2928 23.4144C80.2928 24.4279 80.9915 25.0197 82.4236 25.2218L82.8538 25.2825C83.743 25.4095 84.2281 25.5481 84.2281 25.9234C84.2281 26.2988 83.7228 26.5846 82.9693 26.5846C82.2852 26.5842 81.6136 26.4018 81.0233 26.0563C80.968 26.0143 80.8987 25.9954 80.8298 26.0035C80.7609 26.0116 80.6978 26.046 80.6537 26.0996C80.5584 26.215 80.1773 26.7492 80.1456 26.8156C80.1175 26.8744 80.1123 26.9415 80.131 27.004C80.1497 27.0664 80.1909 27.1196 80.2466 27.1534C81.0744 27.6216 82.0127 27.8589 82.9635 27.8405C83.6551 27.8615 84.3389 27.6896 84.9383 27.3439C85.2057 27.1839 85.4264 26.9564 85.5784 26.6844C85.7304 26.4123 85.8084 26.1051 85.8045 25.7935C85.8132 24.8378 85.0654 24.2431 83.5929 24.0265Z" fill="white"/>
<path d="M89.6648 22.7593C89.3699 22.6815 89.066 22.6436 88.7611 22.6467C88.4119 22.6199 88.061 22.6673 87.7315 22.7858C87.4019 22.9043 87.1011 23.0912 86.8489 23.3341C86.5967 23.5771 86.3987 23.8706 86.268 24.1955C86.1373 24.5204 86.0767 24.8692 86.0904 25.2192C86.0904 26.8389 87.1471 27.8436 88.8534 27.8436C89.558 27.8526 90.2466 27.6339 90.8168 27.22C90.8479 27.1941 90.8732 27.162 90.8911 27.1257C90.909 27.0894 90.9191 27.0497 90.9207 27.0092C90.9194 26.9704 90.9103 26.9322 90.8939 26.897C90.8776 26.8618 90.8543 26.8302 90.8254 26.8042L90.3779 26.3712C90.3491 26.3432 90.3145 26.322 90.2766 26.309C90.2387 26.296 90.1983 26.2916 90.1585 26.2961C90.095 26.3079 90.0349 26.3336 89.9823 26.3712L89.9477 26.3914C89.6173 26.5686 89.2486 26.6628 88.8737 26.6657C88.0941 26.6657 87.5542 26.3076 87.4503 25.7244H91.0506C91.1196 25.7252 91.1862 25.6992 91.2363 25.6518C91.2864 25.6043 91.3161 25.5393 91.3191 25.4703C91.3191 25.4184 91.3191 25.2711 91.3191 25.2451C91.344 24.6639 91.1887 24.0891 90.8745 23.5994C90.5813 23.1871 90.1535 22.89 89.6648 22.7593ZM90.0343 24.6475H87.4791C87.6581 24.1018 88.1374 23.7813 88.8015 23.7813C89.4655 23.7813 89.9419 24.1018 90.0343 24.6475Z" fill="white"/>
<path d="M66.9337 26.4633C66.8673 26.4633 66.8009 26.4633 66.7345 26.4806L66.5497 26.5008C66.3837 26.5196 66.2162 26.5196 66.0502 26.5008C66.0115 26.5006 65.9735 26.4911 65.9393 26.473C65.9051 26.4549 65.8758 26.4288 65.8539 26.3969C65.8186 26.3253 65.8026 26.2456 65.8077 26.1659V23.9052H66.8962C66.9728 23.9052 67.0462 23.8748 67.1003 23.8207C67.1545 23.7665 67.1849 23.6931 67.1849 23.6165V22.9611C67.1863 22.9429 67.1863 22.9245 67.1849 22.9063C67.1698 22.8451 67.1351 22.7905 67.0861 22.7509C67.0371 22.7113 66.9765 22.6888 66.9135 22.6868H65.825V21.7369C65.8215 21.6653 65.7915 21.5976 65.7408 21.5469C65.6901 21.4962 65.6224 21.4661 65.5507 21.4626C65.5033 21.4629 65.4567 21.4748 65.415 21.4973L64.5489 21.9939C64.5109 22.0195 64.4796 22.0539 64.4575 22.094C64.4354 22.1342 64.4232 22.1791 64.4218 22.2249V26.368C64.4002 26.5434 64.4166 26.7214 64.47 26.8898C64.5233 27.0583 64.6124 27.2133 64.731 27.3443C64.8496 27.4752 64.9951 27.5791 65.1575 27.6488C65.3199 27.7185 65.4954 27.7523 65.672 27.7481C65.7731 27.7481 65.877 27.7625 65.9838 27.7625C66.1102 27.7628 66.2364 27.756 66.362 27.7423C66.5793 27.7291 66.7943 27.6913 67.003 27.6297C67.0598 27.6153 67.1103 27.5826 67.1468 27.5367C67.1833 27.4908 67.2038 27.4343 67.2051 27.3757V26.7174C67.1971 26.6498 67.1654 26.5873 67.1157 26.5408C67.0661 26.4944 67.0016 26.4669 66.9337 26.4633Z" fill="white"/>
<path d="M72.3098 22.7015H71.4841C71.4075 22.7015 71.334 22.7319 71.2799 22.786C71.2258 22.8402 71.1953 22.9136 71.1953 22.9902V23.0133C70.8372 22.7751 70.4157 22.6503 69.9856 22.6553H69.9567C69.2771 22.6331 68.6128 22.8601 68.0887 23.2934C67.8258 23.547 67.6203 23.8539 67.4858 24.1935C67.3514 24.5332 67.2911 24.8976 67.3091 25.2624C67.2966 25.6192 67.357 25.9747 67.4865 26.3073C67.6161 26.64 67.8122 26.9426 68.0627 27.1969C68.5705 27.6381 69.2267 27.8703 69.899 27.8465H69.9567C70.3986 27.8339 70.828 27.6968 71.1953 27.451V27.5145C71.1953 27.591 71.2258 27.6645 71.2799 27.7186C71.334 27.7728 71.4075 27.8032 71.4841 27.8032H72.3098C72.3864 27.8032 72.4598 27.7728 72.514 27.7186C72.5681 27.6645 72.5985 27.591 72.5985 27.5145V22.9787C72.5955 22.9041 72.5638 22.8336 72.51 22.7819C72.4562 22.7303 72.3844 22.7014 72.3098 22.7015ZM71.2069 25.2249V26.068C71.0318 26.2909 70.7916 26.4537 70.5197 26.5337C70.2478 26.6137 69.9577 26.6069 69.6898 26.5143C69.4219 26.4217 69.1896 26.2479 69.0251 26.017C68.8607 25.7862 68.7723 25.5098 68.7723 25.2264C68.7723 24.9429 68.8607 24.6665 69.0251 24.4357C69.1896 24.2048 69.4219 24.031 69.6898 23.9384C69.9577 23.8458 70.2478 23.839 70.5197 23.919C70.7916 23.999 71.0318 24.1618 71.2069 24.3847V25.2249Z" fill="white"/>
<path d="M79.5161 26.4633C79.4497 26.4633 79.3833 26.4633 79.3169 26.4806L79.1321 26.5008C78.9662 26.5196 78.7986 26.5196 78.6326 26.5008C78.5967 26.5007 78.5612 26.4927 78.5287 26.4772C78.4963 26.4617 78.4677 26.4392 78.445 26.4113C78.4096 26.3397 78.3937 26.26 78.3988 26.1803V23.9196H79.4988C79.5728 23.9159 79.6426 23.8839 79.6937 23.8301C79.7448 23.7764 79.7732 23.7051 79.7731 23.6309V22.9755C79.7745 22.9573 79.7745 22.9389 79.7731 22.9207C79.7581 22.8599 79.7239 22.8057 79.6754 22.7661C79.627 22.7266 79.5671 22.7038 79.5046 22.7012H78.4132C78.4132 22.0343 78.4132 21.7513 78.4132 21.7513C78.4095 21.6773 78.3775 21.6075 78.3237 21.5564C78.27 21.5054 78.1986 21.477 78.1245 21.4771C78.0772 21.478 78.0307 21.4898 77.9888 21.5117L77.1371 22.0083C77.0991 22.0339 77.0677 22.0683 77.0456 22.1084C77.0236 22.1486 77.0113 22.1935 77.01 22.2393V22.6983H76.1439C75.6598 22.6758 75.185 22.8355 74.8129 23.1459C74.7393 23.2112 74.6726 23.2837 74.6136 23.3624V22.9726C74.6136 22.8961 74.5832 22.8226 74.5291 22.7685C74.4749 22.7143 74.4015 22.6839 74.3249 22.6839H73.4992C73.4226 22.6839 73.3492 22.7143 73.295 22.7685C73.2409 22.8226 73.2104 22.8961 73.2104 22.9726V27.4969C73.2104 27.5735 73.2409 27.6469 73.295 27.701C73.3492 27.7552 73.4226 27.7856 73.4992 27.7856H74.3249C74.4015 27.7856 74.4749 27.7552 74.5291 27.701C74.5832 27.6469 74.6136 27.5735 74.6136 27.4969V26.4113C74.6136 26.2583 74.6136 26.1024 74.6136 25.9493C74.6136 25.6404 74.6136 25.3344 74.6136 25.0254C74.6108 24.8567 74.6474 24.6896 74.7205 24.5375C75.0092 23.9601 75.8147 23.8994 76.1439 23.8994H77.01V26.3824C76.9856 26.7383 77.0994 27.0899 77.3276 27.3641C77.5778 27.6087 77.9105 27.7509 78.2602 27.7625C78.3612 27.7625 78.4652 27.777 78.572 27.777C78.6993 27.7773 78.8266 27.7705 78.9531 27.7567C79.1703 27.7431 79.3853 27.7054 79.5941 27.6441C79.6507 27.6292 79.7009 27.5964 79.7373 27.5507C79.7737 27.5049 79.7944 27.4485 79.7962 27.3901V26.7318C79.7912 26.6602 79.7597 26.5931 79.708 26.5435C79.6562 26.4938 79.5878 26.4652 79.5161 26.4633Z" fill="white"/>
</svg>
