<svg width="58" height="58" viewBox="0 0 58 58" fill="none" xmlns="http://www.w3.org/2000/svg">
<path d="M29 0C12.992 0 0 12.992 0 29C0 45.008 12.992 58 29 58C45.008 58 58 45.008 58 29C58 12.992 45.008 0 29 0ZM29 52.2C16.211 52.2 5.8 41.789 5.8 29C5.8 16.211 16.211 5.8 29 5.8C41.789 5.8 52.2 16.211 52.2 29C52.2 41.789 41.789 52.2 29 52.2ZM40.252 18.241L23.2 35.293L17.748 29.841C16.617 28.71 14.79 28.71 13.659 29.841C12.528 30.972 12.528 32.799 13.659 33.93L21.17 41.441C22.301 42.572 24.128 42.572 25.259 41.441L44.37 22.33C45.501 21.199 45.501 19.372 44.37 18.241C43.239 17.11 41.383 17.11 40.252 18.241Z" fill="#15C626"/>
</svg>
