<svg width="150" height="34" viewBox="0 0 150 34" fill="none" xmlns="http://www.w3.org/2000/svg">
<g clip-path="url(#clip0)">
<path d="M24.1677 24.72C22.9226 25.5096 21.2699 25.9044 19.212 25.9044C18.4857 25.9044 17.8057 25.8457 17.1683 25.7329C15.6471 25.8572 14.3249 26.8828 13.9411 27.7541C13.5726 28.5874 13.5098 29.4817 13.7053 30.3415C14.0666 31.9276 13.0276 33.2282 11.8156 33.5839C10.4461 33.9856 8.80404 32.9842 8.50904 31.6226C8.22352 30.3058 9.12629 29.0041 10.4177 28.6323C12.8227 27.9382 13.7799 25.5683 13.0264 23.6381C13.0087 23.6208 12.9909 23.6036 12.9731 23.5863C12.3867 22.9728 11.9175 22.2419 11.5633 21.3983C11.2955 20.9379 11.0645 20.4533 10.8489 19.9549C9.77078 17.4549 6.90964 16.9117 4.84109 18.3792C4.31269 18.7544 3.74402 19.1227 3.13506 19.3368C1.9136 19.7661 0.597355 18.8177 0.206391 17.8348C-0.499713 16.0565 0.695689 14.4808 2.42896 14.2218C3.14454 14.1147 3.8234 14.4566 4.37667 14.9273C5.56141 15.9333 6.88595 16.4317 8.44506 15.931C9.64876 15.5443 10.4923 14.7443 10.9081 13.5738C11.029 13.2331 11.1865 12.9142 11.3631 12.6058C11.728 11.5457 12.2528 10.6468 12.9435 9.91128C12.998 9.85373 13.0537 9.79964 13.1094 9.74439C13.4956 8.48174 13.2231 6.96473 12.2244 6.13255C11.6735 5.67331 10.9875 5.34872 10.3264 5.0368C9.40588 4.60288 8.72703 4.04349 8.49127 3.00299C8.21167 1.76681 9.27675 0.310801 10.6143 0.0506749C12.2753 -0.272756 13.6496 1.00601 13.7183 2.35037C13.7551 3.06399 13.6425 3.78451 13.6401 4.50159C13.6354 6.0094 14.5263 6.98429 15.7502 7.59662C16.0215 7.73244 16.2916 7.81416 16.5617 7.86135C17.3318 7.67489 18.1694 7.58051 19.0793 7.58051C21.0685 7.58051 22.7034 7.95919 23.9829 8.7154C24.3466 8.9502 24.4675 9.21148 24.3466 9.49693L23.6464 11.0347C23.4912 11.4214 23.1974 11.5215 22.7638 11.3374C21.8302 10.9173 20.7924 10.7066 19.6503 10.7066C17.8862 10.7066 16.5759 11.2027 15.7194 12.1937C14.8628 13.1847 14.4351 14.7063 14.4351 16.7563C14.4351 18.8062 14.8723 20.3232 15.7454 21.3062C16.6186 22.2891 17.9633 22.7806 19.7795 22.7806C20.9559 22.7806 22.0103 22.5366 22.9451 22.0497C23.3432 21.8989 23.637 22.0163 23.8277 22.4031L24.554 23.9661C24.6784 24.2504 24.548 24.5025 24.1677 24.72ZM32.4716 7.57936C29.8948 7.57936 27.9008 8.35283 26.491 9.89862C25.0812 11.4444 24.3762 13.7303 24.3762 16.7551C24.3762 19.7638 25.0764 22.0405 26.478 23.5863C27.8795 25.1321 29.8687 25.9056 32.4455 25.9056C35.0401 25.9056 37.0423 25.1367 38.4521 23.599C39.862 22.0612 40.5669 19.7799 40.5669 16.7551C40.5669 13.7303 39.862 11.4444 38.4521 9.89862C37.0423 8.35283 35.0484 7.57936 32.4716 7.57936ZM32.4716 22.8301C29.531 22.8301 28.0608 20.8055 28.0608 16.7551C28.0608 12.6886 29.531 10.6548 32.4716 10.6548C35.3955 10.6548 36.8563 12.6886 36.8563 16.7551C36.8563 20.8055 35.3943 22.8301 32.4716 22.8301ZM49.8303 25.6282C50.245 25.6282 50.5222 25.4268 50.6609 25.0227L56.395 8.58763C56.4637 8.36894 56.4554 8.19745 56.3689 8.07084C56.2824 7.94423 56.1355 7.88207 55.9282 7.88207H53.3858C52.9877 7.88207 52.7365 8.06738 52.6334 8.43685L49.52 17.8394L48.4039 21.9991H48.3518L47.2097 17.8394L44.0962 8.43685C43.992 8.06738 43.742 7.88207 43.3439 7.88207H40.8275C40.6024 7.88207 40.4472 7.94538 40.3607 8.07084C40.2743 8.19745 40.266 8.36894 40.3347 8.58763L46.0949 25.0227C46.2335 25.4256 46.5012 25.6282 46.8993 25.6282H49.8303ZM57.8996 24.9974C57.8996 25.4175 58.1069 25.6282 58.5228 25.6282H60.884C61.3164 25.6282 61.5332 25.4187 61.5332 24.9974V8.48635C61.5332 8.0835 61.3164 7.88092 60.884 7.88092H58.5228C58.1081 7.88092 57.8996 8.08235 57.8996 8.48635V24.9974ZM69.8619 25.6282C72.8889 25.6282 75.1506 24.9307 76.6469 23.5357C78.1432 22.1406 78.8908 19.8214 78.8908 16.5779C78.8908 13.4863 78.1385 11.2637 76.6327 9.91013C75.1281 8.55771 72.8617 7.88092 69.8347 7.88092H64.8268C64.4121 7.88092 64.2036 8.08235 64.2036 8.48635V24.9974C64.2036 25.4175 64.4192 25.6282 64.8528 25.6282H69.8619ZM69.7055 11.007C71.5904 11.007 72.979 11.4099 73.8699 12.2167C74.7608 13.0236 75.2063 14.4773 75.2063 16.5779C75.2063 18.8304 74.7655 20.3796 73.8829 21.2291C73.0003 22.0773 71.6165 22.5021 69.7316 22.5021H67.8372V11.007H69.7055Z" fill="white"/>
<path d="M84.1973 21.8471C84.1973 21.3936 84.3963 20.9309 84.7944 20.4601L91.5142 12.6207H85.3903C84.7671 12.6207 84.4567 12.318 84.4567 11.7137V8.68888C84.4567 8.08345 84.7683 7.78189 85.3903 7.78189H97.2223C97.8454 7.78189 98.1558 8.0846 98.1558 8.68888V11.5629C98.1558 12.0164 97.9568 12.4791 97.5588 12.9499L90.865 20.7893H97.4296C98.0528 20.7893 98.3632 21.092 98.3632 21.6963V24.7211C98.3632 25.3266 98.0516 25.6281 97.4296 25.6281H85.1308C84.5077 25.6281 84.1973 25.3254 84.1973 24.7211V21.8471ZM106.409 18.7463V21.0909H112.792C113.415 21.0909 113.726 21.3936 113.726 21.9979V24.72C113.726 25.3254 113.414 25.627 112.792 25.627H101.791C101.167 25.627 100.857 25.3243 100.857 24.72V8.68888C100.857 8.08345 101.169 7.78189 101.791 7.78189H112.637C113.26 7.78189 113.57 8.0846 113.57 8.68888V11.411C113.57 12.0164 113.259 12.318 112.637 12.318H106.41V14.4105H112.248C112.854 14.4105 113.157 14.7132 113.157 15.3175V17.8635C113.157 18.4516 112.854 18.7463 112.248 18.7463H106.409ZM123.507 7.78074C126.119 7.78074 128.082 8.27222 129.396 9.25517C130.711 10.2381 131.368 11.8806 131.368 14.1837C131.368 16.7217 130.261 18.4942 128.047 19.5025L131.16 24.4932C131.351 24.796 131.394 25.0607 131.291 25.2874C131.188 25.5142 130.971 25.6281 130.641 25.6281H126.854C126.283 25.6281 125.85 25.3841 125.556 24.8972L122.884 20.3347H121.56V24.7211C121.56 25.3266 121.249 25.6281 120.627 25.6281H116.89C116.267 25.6281 115.957 25.3254 115.957 24.7211V8.68888C115.957 8.08345 116.268 7.78189 116.89 7.78189H123.507V7.78074ZM123.43 16.0495C124.243 16.0495 124.827 15.8987 125.181 15.596C125.535 15.2933 125.713 14.8226 125.713 14.1849C125.713 13.4621 125.54 12.9706 125.194 12.7105C124.848 12.4503 124.26 12.3203 123.43 12.3203H121.562V16.0507H123.43V16.0495ZM150 16.7044C150 13.5622 149.256 11.2383 147.769 9.73399C146.281 8.22963 144.205 7.47803 141.542 7.47803C138.878 7.47803 136.802 8.22963 135.315 9.73399C133.827 11.2383 133.084 13.5611 133.084 16.7044C133.084 19.8467 133.828 22.1705 135.315 23.6737C136.803 25.1781 138.879 25.9297 141.542 25.9297C141.552 25.9297 141.562 25.9297 141.572 25.9297C141.579 25.9297 141.586 25.9297 141.594 25.9297C144.258 25.9297 146.333 25.1781 147.821 23.6737C147.995 23.4976 148.136 23.3135 148.25 23.1236C149.415 21.6261 150 19.4875 150 16.7044ZM143.72 19.9502C143.687 20.0147 143.653 20.0769 143.618 20.1356C143.578 20.2012 143.535 20.2633 143.491 20.322C143.476 20.3439 143.46 20.3658 143.444 20.3865C143.4 20.4417 143.354 20.4924 143.306 20.543C143.283 20.5683 143.259 20.596 143.234 20.6201C143.201 20.6524 143.164 20.6811 143.13 20.7111C143.086 20.749 143.042 20.787 142.995 20.8216C142.983 20.8308 142.97 20.8377 142.958 20.8457C142.576 21.1059 142.111 21.2382 141.56 21.2405C141.53 21.2405 141.502 21.2394 141.473 21.2382C141.426 21.2371 141.38 21.2336 141.334 21.2313C140.878 21.1979 140.488 21.0759 140.167 20.863L144.216 15.5085C144.248 15.8757 144.266 16.2717 144.266 16.7033C144.266 18.1087 144.095 19.1687 143.754 19.8846C143.742 19.9088 143.73 19.9295 143.72 19.9502ZM142.973 12.5723L138.92 17.9395C138.886 17.4019 138.868 16.9899 138.868 16.7044C138.868 13.6934 139.769 12.1822 141.568 12.1683C142.123 12.173 142.592 12.3076 142.973 12.5723Z" fill="#EF7764"/>
</g>
<defs>
<clipPath id="clip0">
<path d="M0 0H150V33.6735H0V0Z" fill="white"/>
</clipPath>
</defs>
</svg>
