<?xml version="1.0"?>
<svg xmlns="http://www.w3.org/2000/svg" width="121" height="57" viewBox="0 0 121 57" fill="none">
<path d="M106.792 24.1505C105.324 24.1505 105.591 23.6424 102.427 23.6424C99.7811 23.6424 97.1946 24.8018 95.624 26.1326C95.6172 21.454 99.8085 15.8485 106.792 15.8485C109.563 15.8485 111.157 18.0347 111.157 19.9995C111.157 21.1004 110.697 22.1562 109.878 22.9347C109.06 23.7131 107.949 24.1505 106.792 24.1505ZM112.271 14.6349C112.271 16.8059 113.775 17.023 113.775 19.9995C113.785 21.1307 113.487 22.2451 112.909 23.2342C112.332 24.2234 111.495 25.0536 110.481 25.6441C114.59 25.6441 121 22.0446 121 14.6392C121 13.5383 120.54 12.4825 119.722 11.704C118.903 10.9255 117.793 10.4882 116.635 10.4882C115.478 10.4882 114.368 10.9255 113.549 11.704C112.73 12.4825 112.271 13.5383 112.271 14.6392V14.6349ZM110.472 1.31298e-07C109.363 -0.000264647 108.295 0.399948 107.484 1.11973C106.673 1.83951 106.18 2.82517 106.105 3.87745C106.105 3.97297 106.093 4.0685 106.093 4.16402C106.093 4.25955 106.093 4.35724 106.105 4.45277C106.034 7.11577 104.909 9.65541 102.957 11.565C102.783 11.717 102.614 11.8712 102.452 12.0318C102.069 12.4054 101.715 12.806 101.395 13.2302C101.026 13.718 100.701 14.2343 100.423 14.7738C101.82 14.088 103.33 13.6335 104.888 13.4299C105.054 13.4147 105.219 13.3974 105.385 13.3757C107.61 13.0735 109.687 12.1412 111.346 10.7003C113.005 9.25935 114.17 7.37661 114.688 5.2973C114.743 5.11 114.785 4.91919 114.811 4.72632C114.839 4.54004 114.853 4.35214 114.852 4.16402C114.852 3.05945 114.39 2.00033 113.569 1.21948C112.747 0.438639 111.633 -1.86744e-08 110.472 1.31298e-07Z" fill="white"/>
<path d="M8.44653 35.3725C10.5011 32.4481 13.4688 30.8134 17.1213 30.7764V38.019C12.0991 37.6 8.90309 39.7818 8.44653 43.3098V55.6846H0V30.5007H8.44653V35.3725Z" fill="white"/>
<path d="M27.3758 24.1353C27.3758 26.6428 25.5198 28.4057 22.9334 28.4057C20.3469 28.4057 18.491 26.6428 18.491 24.1353C18.491 21.6755 20.3469 19.9126 22.9334 19.9126C25.5198 19.9126 27.3758 21.6755 27.3758 24.1353Z" fill="white"/>
<path d="M27.394 30.5094H18.9475V55.6933H27.394V30.5094Z" fill="white"/>
<path d="M58.3589 43.4031C58.3589 51.0147 53.6745 56.0732 46.3055 56.0732C42.8812 56.0732 40.4066 54.7706 38.3521 52.4519V55.6932H29.6772V19.8714H38.3521V34.072C40.4066 31.799 42.7922 30.4985 46.1137 30.4985C53.5284 30.4985 58.3589 35.6504 58.3589 43.4031ZM49.8667 43.1708C49.8667 39.365 47.4743 36.6729 43.961 36.6729C40.5367 36.6729 38.1535 39.365 38.1535 43.1708C38.1535 47.0786 40.5436 49.7142 43.961 49.7142C47.4834 49.7164 49.8667 47.0222 49.8667 43.1708Z" fill="white"/>
<path d="M82.2556 43.262C82.2556 50.967 76.4983 56.071 67.9079 56.071C59.2696 56.071 53.51 50.9648 53.51 43.262C53.51 35.5592 59.2696 30.4986 67.9079 30.4986C76.4983 30.4986 82.2556 35.557 82.2556 43.262ZM62.0022 43.3554C62.0022 47.2632 64.3946 49.8532 67.9079 49.8532C71.3733 49.8532 73.7634 47.248 73.7634 43.3554C73.7634 39.504 71.3733 36.8575 67.9079 36.8575C64.3946 36.8575 62.0022 39.5126 62.0022 43.3554Z" fill="white"/>
<path d="M110.718 40.0141V55.6933H102.728V42.2329C102.728 39.3085 100.902 37.5001 98.0709 37.5001C94.9959 37.5001 92.9116 39.5886 92.6834 42.5586V55.6846H84.0085V30.5007H92.6834V34.8536C94.5096 31.9285 97.3769 30.4428 101.285 30.3965C107.093 30.4052 110.718 34.1654 110.718 40.0141Z" fill="white"/>
</svg>
