<?xml version="1.0" encoding="UTF-8"?>
<svg width="117px" height="31px" viewBox="0 0 117 31" version="1.1" xmlns="http://www.w3.org/2000/svg" xmlns:xlink="http://www.w3.org/1999/xlink">
    <!-- Generator: Sketch 52.6 (67491) - http://www.bohemiancoding.com/sketch -->
    <title>logo-pink-preme</title>
    <desc>Created with Sketch.</desc>
    <g id="Page-1" stroke="none" stroke-width="1" fill="none" fill-rule="evenodd">
        <g id="Desktop-HD" transform="translate(-114.000000, -64.000000)" fill="#FF7276">
            <path d="M128.312118,76.0151724 C128.312118,74.048266 127.873274,72.4733392 126.995573,71.2903448 C126.117872,70.1073504 124.815496,69.5158621 123.088407,69.5158621 C122.522148,69.5158621 121.998367,69.5372412 121.517047,69.58 C121.035727,69.6227588 120.639352,69.6726434 120.32791,69.7296552 L120.32791,81.2317241 C120.724291,81.4882771 121.240994,81.7020681 121.878035,81.8731034 C122.515076,82.0441388 123.159186,82.1296552 123.810383,82.1296552 C126.811555,82.1296552 128.312118,80.0915146 128.312118,76.0151724 Z M134.767435,75.8441379 C134.767435,77.5829972 134.555091,79.1650503 134.130397,80.5903448 C133.705703,82.0156393 133.082828,83.2413742 132.261753,84.2675862 C131.440677,85.2937982 130.421427,86.0919512 129.203971,86.662069 C127.986514,87.2321868 126.585045,87.5172414 124.999521,87.5172414 C124.12182,87.5172414 123.300757,87.431725 122.536308,87.2606897 C121.771858,87.0896543 121.035733,86.8473579 120.32791,86.5337931 L120.32791,95 L114,95 L114,65.3682759 C114.566259,65.1972405 115.217446,65.0333341 115.953583,64.8765517 C116.689719,64.7197693 117.461235,64.5843684 118.268154,64.4703448 C119.075072,64.3563213 119.896135,64.2636785 120.731367,64.1924138 C121.566599,64.1211491 122.366427,64.0855172 123.130876,64.0855172 C124.971217,64.0855172 126.613343,64.3634455 128.057303,64.9193103 C129.501262,65.4751752 130.7187,66.2590754 131.709653,67.2710345 C132.700606,68.2829936 133.457965,69.5158548 133.981755,70.9696552 C134.505544,72.4234555 134.767435,74.0482669 134.767435,75.8441379 Z M151.244825,70.2427586 C150.678567,70.1002292 150.013223,69.9505755 149.248773,69.7937931 C148.484324,69.6370107 147.663261,69.5586207 146.78556,69.5586207 C146.389179,69.5586207 145.914945,69.5942525 145.362842,69.6655172 C144.81074,69.736782 144.39313,69.815172 144.110001,69.9006897 L144.110001,87.0896552 L137.782092,87.0896552 L137.782092,65.7958621 C138.914609,65.3967796 140.252375,65.0190822 141.79543,64.6627586 C143.338485,64.306435 145.05847,64.1282759 146.955437,64.1282759 C147.295192,64.1282759 147.705724,64.149655 148.187044,64.1924138 C148.668363,64.2351726 149.149676,64.2921836 149.630996,64.3634483 C150.112316,64.434713 150.593629,64.5202294 151.074949,64.62 C151.556269,64.7197706 151.9668,64.8409188 152.306555,64.9834483 L151.244825,70.2427586 Z M152.348368,76.0151724 C152.348368,74.0197601 152.652728,72.2738006 153.261456,70.7772414 C153.870184,69.2806822 154.670013,68.0335682 155.660965,67.0358621 C156.651918,66.0381559 157.791497,65.2827612 159.079735,64.7696552 C160.367974,64.2565492 161.691584,64 163.050605,64 C166.221654,64 168.727311,64.9763121 170.567652,66.9289655 C172.407993,68.881619 173.328149,71.7535443 173.328149,75.5448276 C173.328149,75.9154042 173.313993,76.321607 173.28568,76.7634483 C173.257367,77.2052896 173.229055,77.5972397 173.200742,77.9393103 L158.846155,77.9393103 C158.987719,79.2505813 159.596438,80.2910306 160.67233,81.0606897 C161.748222,81.8303487 163.19216,82.2151724 165.004188,82.2151724 C166.165018,82.2151724 167.304597,82.1082769 168.422958,81.8944828 C169.541319,81.6806886 170.454397,81.4170131 171.16222,81.1034483 L172.011604,86.2772414 C171.671849,86.4482767 171.218849,86.6193095 170.65259,86.7903448 C170.086331,86.9613802 169.456378,87.1110338 168.762711,87.2393103 C168.069044,87.3675868 167.325841,87.4744823 166.533079,87.56 C165.740316,87.6455177 164.947566,87.6882759 164.154804,87.6882759 C162.144585,87.6882759 160.396288,87.3889685 158.909859,86.7903448 C157.423429,86.1917211 156.191835,85.3721891 155.215039,84.3317241 C154.238243,83.2912592 153.516274,82.0583979 153.04911,80.6331034 C152.581947,79.207809 152.348368,77.668514 152.348368,76.0151724 Z M167.212586,73.577931 C167.184273,73.0363191 167.092257,72.5089681 166.936536,71.9958621 C166.780815,71.4827561 166.540158,71.0266687 166.21456,70.6275862 C165.888961,70.2285038 165.478429,69.9006909 164.982953,69.6441379 C164.487477,69.3875849 163.87168,69.2593103 163.135543,69.2593103 C162.42772,69.2593103 161.819001,69.3804586 161.309368,69.6227586 C160.799735,69.8650587 160.375047,70.1857451 160.035292,70.5848276 C159.695537,70.98391 159.433646,71.4471238 159.249612,71.9744828 C159.065578,72.5018417 158.931094,73.0363191 158.846155,73.577931 L167.212586,73.577931 Z M188.616402,75.16 C188.616402,73.1075759 188.354512,71.6537974 187.830722,70.7986207 C187.306933,69.943444 186.408011,69.5158621 185.133929,69.5158621 C184.737548,69.5158621 184.327016,69.5372412 183.902322,69.58 C183.477628,69.6227588 183.067097,69.6726434 182.670716,69.7296552 L182.670716,87.0896552 L176.342806,87.0896552 L176.342806,65.3682759 C176.880752,65.2257464 177.510705,65.0760927 178.232685,64.9193103 C178.954665,64.762528 179.719103,64.6200006 180.526021,64.4917241 C181.33294,64.3634476 182.161081,64.2636785 183.010469,64.1924138 C183.859857,64.1211491 184.695076,64.0855172 185.516151,64.0855172 C187.129989,64.0855172 188.439442,64.2921818 189.444552,64.7055172 C190.449661,65.1188526 191.277802,65.6105719 191.928999,66.1806897 C192.835013,65.5250542 193.875498,65.0119559 195.050485,64.6413793 C196.225472,64.2708027 197.308425,64.0855172 198.299378,64.0855172 C200.083093,64.0855172 201.548266,64.33494 202.69494,64.8337931 C203.841613,65.3326462 204.754692,66.0381564 205.434202,66.9503448 C206.113713,67.8625333 206.580869,68.9457409 206.835686,70.2 C207.090502,71.4542591 207.217908,72.8510268 207.217908,74.3903448 L207.217908,87.0896552 L200.889999,87.0896552 L200.889999,75.16 C200.889999,73.1075759 200.628108,71.6537974 200.104319,70.7986207 C199.580529,69.943444 198.681607,69.5158621 197.407525,69.5158621 C197.06777,69.5158621 196.593535,69.6013785 195.984807,69.7724138 C195.376079,69.9434491 194.873532,70.1572401 194.477151,70.4137931 C194.675341,71.0694286 194.802748,71.760686 194.859374,72.4875862 C194.915999,73.2144864 194.944312,73.9912602 194.944312,74.817931 L194.944312,87.0896552 L188.616402,87.0896552 L188.616402,75.16 Z M210.020219,76.0151724 C210.020219,74.0197601 210.324579,72.2738006 210.933307,70.7772414 C211.542035,69.2806822 212.341863,68.0335682 213.332816,67.0358621 C214.323769,66.0381559 215.463348,65.2827612 216.751586,64.7696552 C218.039825,64.2565492 219.363435,64 220.722456,64 C223.893504,64 226.399162,64.9763121 228.239503,66.9289655 C230.079843,68.881619 231,71.7535443 231,75.5448276 C231,75.9154042 230.985844,76.321607 230.957531,76.7634483 C230.929218,77.2052896 230.900905,77.5972397 230.872592,77.9393103 L216.518006,77.9393103 C216.65957,79.2505813 217.268289,80.2910306 218.344181,81.0606897 C219.420072,81.8303487 220.86401,82.2151724 222.676038,82.2151724 C223.836869,82.2151724 224.976447,82.1082769 226.094808,81.8944828 C227.213169,81.6806886 228.126248,81.4170131 228.834071,81.1034483 L229.683455,86.2772414 C229.3437,86.4482767 228.8907,86.6193095 228.324441,86.7903448 C227.758182,86.9613802 227.128229,87.1110338 226.434562,87.2393103 C225.740895,87.3675868 224.997692,87.4744823 224.204929,87.56 C223.412167,87.6455177 222.619417,87.6882759 221.826655,87.6882759 C219.816436,87.6882759 218.068139,87.3889685 216.581709,86.7903448 C215.09528,86.1917211 213.863686,85.3721891 212.88689,84.3317241 C211.910093,83.2912592 211.188124,82.0583979 210.720961,80.6331034 C210.253797,79.207809 210.020219,77.668514 210.020219,76.0151724 Z M224.884436,73.577931 C224.856123,73.0363191 224.764108,72.5089681 224.608387,71.9958621 C224.452665,71.4827561 224.212009,71.0266687 223.88641,70.6275862 C223.560812,70.2285038 223.15028,69.9006909 222.654804,69.6441379 C222.159327,69.3875849 221.54353,69.2593103 220.807394,69.2593103 C220.099571,69.2593103 219.490852,69.3804586 218.981219,69.6227586 C218.471586,69.8650587 218.046898,70.1857451 217.707143,70.5848276 C217.367388,70.98391 217.105497,71.4471238 216.921463,71.9744828 C216.737429,72.5018417 216.602944,73.0363191 216.518006,73.577931 L224.884436,73.577931 Z" id="logo-pink-preme"></path>
        </g>
    </g>
</svg>