<svg width="20" height="14" viewBox="0 0 20 14" fill="none" xmlns="http://www.w3.org/2000/svg">
<path d="M1.11111 13.6666H18.8889C19.5 13.6666 20 13.1666 20 12.5555C20 11.9444 19.5 11.4444 18.8889 11.4444H1.11111C0.5 11.4444 0 11.9444 0 12.5555C0 13.1666 0.5 13.6666 1.11111 13.6666ZM1.11111 8.11109H18.8889C19.5 8.11109 20 7.61109 20 6.99998C20 6.38887 19.5 5.88887 18.8889 5.88887H1.11111C0.5 5.88887 0 6.38887 0 6.99998C0 7.61109 0.5 8.11109 1.11111 8.11109ZM0 1.44442C0 2.05554 0.5 2.55554 1.11111 2.55554H18.8889C19.5 2.55554 20 2.05554 20 1.44442C20 0.833313 19.5 0.333313 18.8889 0.333313H1.11111C0.5 0.333313 0 0.833313 0 1.44442Z" fill="#B0B0B0"/>
</svg>
