<svg width="24" height="24" viewBox="0 0 24 24" fill="none" xmlns="http://www.w3.org/2000/svg">
<path d="M17.7777 15.3332H20V17.5554H17.7777V15.3332ZM17.7777 10.8888H20V13.111H17.7777V10.8888ZM17.7777 6.44434H20V8.66656H17.7777V6.44434ZM14.1555 6.44434L15.5555 7.37767V6.44434H14.1555Z" fill="#B0B0B0"/>
<path d="M10 2V3.67778L12.2222 5.15556V4.22222H22.2222V19.7778H17.7778V22H24V2H10Z" fill="#B0B0B0"/>
<path d="M7.96667 5L15.5556 10.0556V22H0V10.3111L7.96667 5ZM10 19.7778H13.3333V11.0667L7.96667 7.65556L2.22222 11.3111V19.7778H5.55556V13.1111H10V19.7778Z" fill="#B0B0B0"/>
</svg>
