<svg xmlns="http://www.w3.org/2000/svg" width="18.389" height="20.15" viewBox="0 0 18.389 20.15">
  <g id="donations-active" transform="translate(-3.257 -1.7)">
    <path id="Path_7" data-name="Path 7" d="M13.533,14.529a.716.716,0,0,0,.8,0A31.759,31.759,0,0,0,17,12.488a16.9,16.9,0,0,0,3.808-4.281A4.125,4.125,0,0,0,17.341,1.85a3.681,3.681,0,0,0-2.172.785,7.816,7.816,0,0,0-1.237,1.173,7.82,7.82,0,0,0-1.237-1.173,3.681,3.681,0,0,0-2.172-.785A4.125,4.125,0,0,0,7.051,8.207a16.9,16.9,0,0,0,3.807,4.281A31.754,31.754,0,0,0,13.533,14.529Z" fill="#f5f5f5" stroke="#f5f5f5" stroke-width="0.3"/>
    <path id="Path_4" data-name="Path 4" d="M23.675,57.8c-.978-.573-1.8.277-2.106.6a23.585,23.585,0,0,1-1.832,1.668,1.374,1.374,0,0,0-.55-.12,13.151,13.151,0,0,1-3.591-.567c-.512-.3-.923-.6-1.285-.864A5.583,5.583,0,0,0,10.4,57.16a5.232,5.232,0,0,0-1.615.324A5.065,5.065,0,0,1,7.2,57.8a1.177,1.177,0,0,0-1.176,1.176v2.993A1.177,1.177,0,0,0,7.2,63.147a20.2,20.2,0,0,1,3.252.186,21.659,21.659,0,0,1,2.894,1.55l.022.013a1.394,1.394,0,0,0,.675.175h5.436a2.008,2.008,0,0,0,1.437-.9c.713-1.183,3.268-4.4,3.294-4.433a.549.549,0,0,0,.059-.094A1.407,1.407,0,0,0,23.675,57.8ZM19.475,64H14.039a.325.325,0,0,1-.148-.036,22.711,22.711,0,0,0-3.1-1.647,20.073,20.073,0,0,0-3.59-.241.107.107,0,0,1-.107-.107V58.977A.107.107,0,0,1,7.2,58.87,6.087,6.087,0,0,0,9.111,58.5a4.3,4.3,0,0,1,1.293-.274,4.557,4.557,0,0,1,3.279,1.145c.38.276.812.588,1.365.918a4.3,4.3,0,0,0,1.255.4,23.171,23.171,0,0,0,2.839.32h.028a.321.321,0,1,1,0,.641h-.028l-4.045.213a5.268,5.268,0,0,1-1.587-.907c-.131-.093-.258-.182-.384-.268a6.694,6.694,0,0,0-.773-.478.535.535,0,0,0-.478.956,9.144,9.144,0,0,1,1.017.663,4.632,4.632,0,0,0,2.216,1.1h.028l4.05-.213a1.39,1.39,0,0,0,1.285-1.879,24.308,24.308,0,0,0,1.866-1.705c.455-.472.637-.51.8-.416a.36.36,0,0,1,.191.409c-.355.448-2.625,3.324-3.329,4.492A1.116,1.116,0,0,1,19.475,64Z" transform="translate(-2.764 -43.221)" fill="#f5f5f5"/>
  </g>
</svg>
