<svg width="24" height="24" viewBox="0 0 24 24" fill="none" xmlns="http://www.w3.org/2000/svg">
<path d="M18.2381 2H4.90476C3.84762 2 3 2.85714 3 3.90476V17.2381C3 18.2857 3.84762 19.1429 4.90476 19.1429H8.71429L11.5714 22L14.4286 19.1429H18.2381C19.2857 19.1429 20.1429 18.2857 20.1429 17.2381V3.90476C20.1429 2.85714 19.2857 2 18.2381 2ZM12.5238 17.2381H10.619V15.3333H12.5238V17.2381ZM14.4952 9.85714L13.6381 10.7333C12.9524 11.4286 12.5238 12 12.5238 13.4286H10.619V12.9524C10.619 11.9048 11.0476 10.9524 11.7333 10.2571L12.9143 9.05714C13.2667 8.71429 13.4762 8.2381 13.4762 7.71429C13.4762 6.66667 12.619 5.80952 11.5714 5.80952C10.5238 5.80952 9.66667 6.66667 9.66667 7.71429H7.7619C7.7619 5.60952 9.46667 3.90476 11.5714 3.90476C13.6762 3.90476 15.381 5.60952 15.381 7.71429C15.381 8.55238 15.0381 9.31429 14.4952 9.85714Z" fill="#F5F5F5"/>
</svg>
