<svg width="24" height="24" viewBox="0 0 24 24" fill="none" xmlns="http://www.w3.org/2000/svg">
<path d="M18.2381 2H4.90476C3.84762 2 3 2.85714 3 3.90476V17.2381C3 18.2857 3.84762 19.1429 4.90476 19.1429H8.71429L11.5714 22L14.4286 19.1429H18.2381C19.2857 19.1429 20.1429 18.2857 20.1429 17.2381V3.90476C20.1429 2.85714 19.2857 2 18.2381 2ZM18.2381 17.2381H13.6381L13.0762 17.8L11.5714 19.3048L10.0571 17.7905L9.50476 17.2381H4.90476V3.90476H18.2381V17.2381ZM10.619 14.381H12.5238V16.2857H10.619V14.381ZM11.5714 6.7619C12.619 6.7619 13.4762 7.61905 13.4762 8.66667C13.4762 10.5714 10.619 10.3333 10.619 13.4286H12.5238C12.5238 11.2857 15.381 11.0476 15.381 8.66667C15.381 6.5619 13.6762 4.85714 11.5714 4.85714C9.46667 4.85714 7.7619 6.5619 7.7619 8.66667H9.66667C9.66667 7.61905 10.5238 6.7619 11.5714 6.7619Z" fill="#B0B0B0"/>
</svg>
