<svg xmlns="http://www.w3.org/2000/svg" width="20" height="25.361" viewBox="0 0 20 25.361">
  <g id="hospital-marker" transform="translate(-113.573 -9.999)">
    <g id="Group_1" data-name="Group 1" transform="translate(113.573 9.999)">
      <path id="Path_1" data-name="Path 1" d="M122.08-500.922a10.546,10.546,0,0,0-4.591,1.94,13.48,13.48,0,0,0-2.077,2.157,9.985,9.985,0,0,0-1.813,6.484c.253,3.495,2.662,7.655,6.932,11.941.907.907,2.358,2.244,2.852,2.617l.189.143.4-.321a41.567,41.567,0,0,0,5.44-5.555c4.2-5.273,5.2-9.749,3.111-13.961a9.964,9.964,0,0,0-7.029-5.371A13.032,13.032,0,0,0,122.08-500.922Zm3.5,5.962v1.98h3.959l-.012,1.962-.017,1.968-1.962.017-1.968.011-.012,1.968-.017,1.962-1.991.017-2,.011v-3.959l-1.962-.011-1.968-.017-.017-1.968-.011-1.962h3.959v-3.959h4.017v1.98Z" transform="translate(-113.573 501.001)" fill="rgba(255,39,39,0.3)"/>
    </g>
  </g>
</svg>
