<svg width="25" height="24" viewBox="0 0 25 24" fill="none" xmlns="http://www.w3.org/2000/svg">
<path d="M15.1565 4.88816L10.1537 3.11527C9.73346 2.96331 9.27321 2.96331 8.85297 3.10514L4.86076 4.46267C4.05031 4.74633 3.5 5.51628 3.5 6.38753V18.3925C3.5 19.821 4.91078 20.7936 6.22151 20.2769L9.15314 19.122C9.37326 19.0308 9.6234 19.0308 9.84352 19.1118L14.8463 20.8847C15.2665 21.0367 15.7268 21.0367 16.147 20.8949L20.1392 19.5373C20.9497 19.2638 21.5 18.4837 21.5 17.6125V5.60745C21.5 4.17901 20.0892 3.20645 18.7785 3.72312L15.8469 4.87803C15.6267 4.95908 15.3866 4.96921 15.1565 4.88816ZM15.5067 18.9801L9.50333 16.8425V5.01987L15.5067 7.15747V18.9801Z" fill="#F5F5F5"/>
</svg>
