<svg width="32" height="32" viewBox="0 0 32 32" fill="none" xmlns="http://www.w3.org/2000/svg">
<path d="M19.542 6.51755L12.8716 4.15369C12.3113 3.95108 11.6976 3.95108 11.1373 4.14019L5.81434 5.95023C4.73374 6.32844 4 7.35503 4 8.5167V24.5234C4 26.428 5.88104 27.7247 7.62868 27.0358L11.5375 25.496C11.831 25.3744 12.1645 25.3744 12.458 25.4824L19.1284 27.8463C19.6887 28.0489 20.3024 28.0489 20.8627 27.8598L26.1857 26.0498C27.2663 25.6851 28 24.645 28 23.4833V7.4766C28 5.57201 26.119 4.27526 24.3713 4.96416L20.4625 6.50404C20.169 6.61211 19.8488 6.62561 19.542 6.51755ZM20.0089 25.3068L12.0044 22.4567V6.69315L20.0089 9.54329V25.3068Z" fill="#F5F5F5"/>
</svg>
