<svg width="60" height="48" viewBox="0 0 60 48" fill="none" xmlns="http://www.w3.org/2000/svg">
<path d="M34.9999 35.2368C33.2754 36.3628 30.9874 36.9258 28.137 36.9258C27.1317 36.9258 26.1896 36.8418 25.3062 36.6807C23.1995 36.8578 21.3691 38.3206 20.8361 39.5618C20.3258 40.7502 20.2382 42.0244 20.5096 43.2508C21.0095 45.5119 19.5711 47.365 17.8926 47.8722C15.9954 48.445 13.7221 47.0182 13.3141 45.0763C12.919 43.1987 14.1699 41.3444 15.9562 40.8139C19.2863 39.8246 20.6119 36.4461 19.5687 33.6956C19.5448 33.6704 19.5191 33.6466 19.4952 33.6208C18.6822 32.7467 18.0341 31.7052 17.5434 30.5027C17.1728 29.846 16.8524 29.1556 16.5547 28.445C15.0624 24.8816 11.0996 24.1073 8.23508 26.1986C7.50304 26.7334 6.71585 27.2578 5.87292 27.5629C4.18094 28.1749 2.35909 26.8229 1.81817 25.4225C0.839859 22.8882 2.49631 20.6412 4.89645 20.273C5.88701 20.1211 6.82734 20.6087 7.5937 21.2783C9.23545 22.7124 11.0689 23.4236 13.2283 22.7093C14.8952 22.158 16.0634 21.0179 16.6392 19.3486C16.8071 18.8628 17.0252 18.4077 17.269 17.9685C17.7738 16.4578 18.5015 15.1756 19.4584 14.1281C19.5331 14.046 19.6109 13.9694 19.6881 13.8904C20.2229 12.0906 19.8462 9.92817 18.4623 8.74158C17.699 8.08733 16.7501 7.6236 15.8337 7.17947C14.5595 6.56136 13.6186 5.76254 13.2927 4.28068C12.9055 2.51886 14.3806 0.44278 16.2331 0.0721607C18.534 -0.388509 20.4367 1.43334 20.5317 3.34953C20.5819 4.36766 20.4263 5.39376 20.4232 6.41679C20.4165 8.56638 21.6509 9.95513 23.3447 10.8275C23.7196 11.0204 24.0939 11.1368 24.4694 11.2048C25.5353 10.9396 26.6962 10.8036 27.9557 10.8036C30.7105 10.8036 32.974 11.3426 34.7469 12.4202C35.2498 12.7559 35.4177 13.1271 35.2498 13.5339L34.2795 15.7258C34.0639 16.2771 33.6571 16.4204 33.058 16.157C31.7642 15.5585 30.327 15.259 28.7459 15.259C26.3029 15.259 24.4884 15.9659 23.3024 17.3791C22.1164 18.7924 21.5235 20.9604 21.5235 23.8824C21.5235 26.8051 22.1281 28.967 23.338 30.368C24.5478 31.7696 26.4101 32.4698 28.9254 32.4698C30.5543 32.4698 32.0153 32.1224 33.3091 31.4277C33.8605 31.2121 34.2672 31.38 34.5306 31.9307L35.5365 34.1587C35.7062 34.5661 35.5267 34.9256 34.9999 35.2368Z" fill="#706F6F"/>
<path d="M59.0264 23.8107C59.0264 19.3308 57.996 16.0197 55.9365 13.8757C53.8763 11.7316 51.002 10.6602 47.313 10.6602C43.624 10.6602 40.7497 11.7322 38.6895 13.8757C36.6294 16.0197 35.5996 19.3314 35.5996 23.8107C35.5996 28.29 36.6294 31.6017 38.6895 33.7457C40.7497 35.8898 43.624 36.9618 47.313 36.9618C47.3271 36.9618 47.3406 36.9612 47.354 36.9612C47.3645 36.9612 47.3743 36.9618 47.3847 36.9618C51.0737 36.9618 53.948 35.8898 56.0081 33.7457C56.2501 33.494 56.4443 33.233 56.6018 32.9616C58.2172 30.8261 59.0264 27.7772 59.0264 23.8107ZM50.3294 28.4382C50.2841 28.5301 50.2369 28.6183 50.1879 28.7016C50.1322 28.7954 50.0727 28.883 50.0115 28.9681C49.9894 28.9987 49.9692 29.0312 49.9465 29.0606C49.8859 29.1396 49.8216 29.2119 49.7566 29.283C49.7229 29.3191 49.6917 29.3583 49.6568 29.3926C49.6108 29.4392 49.5606 29.4796 49.5122 29.5225C49.4509 29.5758 49.3903 29.6316 49.3254 29.6793C49.3088 29.6916 49.2911 29.7014 49.2745 29.7136C48.7465 30.0843 48.102 30.2723 47.3393 30.2766C47.2989 30.276 47.2591 30.2742 47.2193 30.2729C47.1531 30.2717 47.0894 30.2674 47.0257 30.2631C46.3935 30.216 45.8538 30.042 45.4091 29.7388L51.0174 22.1071C51.0621 22.6296 51.086 23.195 51.086 23.8101C51.086 25.8126 50.8489 27.3239 50.3772 28.3451C50.3613 28.3776 50.3453 28.4076 50.3294 28.4382ZM49.2966 17.9212L43.684 25.5713C43.6362 24.8049 43.6123 24.2175 43.6123 23.8107C43.6123 19.5195 44.859 17.365 47.3504 17.3448C48.1186 17.3509 48.7673 17.5426 49.2966 17.9212Z" fill="#EF7764"/>
</svg>
